<svg xmlns="http://www.w3.org/2000/svg" xmlns:xlink="http://www.w3.org/1999/xlink" viewBox="0 0 268.4 281.13" xmlns:v="https://vecta.io/nano"><style><![CDATA[.S{fill:#2f55d4}.T{fill:#fff}.U{fill:#263238}.V{fill:#5790cc}.W{fill:#e0e0e0}.X{fill:#455a64}.Y{fill:#7cb5e8}.Z{fill:#cca075}]]></style><path d="M54.09 219.39l50.55 34.01v-2.6l-49.06-32.9-1.49 1.49z" fill="#2e3d42"/><path d="M113.31 6.83l-68.43 88.9 184-45.75L126.41 3.54a10.86 10.86 0 0 0-13.1 3.29z" fill="#ebebeb"/><path d="M43.91 96.36l69.1-89.75a11.19 11.19 0 0 1 13.56-3.38L230.1 50.12zm78-93.45a10.41 10.41 0 0 0-8.3 4.13h0L45.85 95.1l181.91-45.22-101.5-46a10.52 10.52 0 0 0-4.35-.92z" class="W"/><path d="M44.88 95.73l184.67-45.91h0l24.88 100.09a7.69 7.69 0 0 1-5.61 9.33L79.1 201.43a7.69 7.69 0 0 1-9.33-5.61L44.88 95.73z" fill="#f0f0f0"/><path d="M218.22 55.48l-64 65.37-96.68-21.8-11.06-51.26c-1.267-5.515 2.125-11.027 7.62-12.38L193.95.64c5.542-1.379 11.153 1.99 12.54 7.53h0z" class="T"/><path d="M145.42 115.53l-76 79.39h0a8.46 8.46 0 0 0 10.26 6.18h0l168.42-41.87a8.47 8.47 0 0 0 6.17-10.26l-.15-.64-99.35-35a8.88 8.88 0 0 0-9.35 2.2zM66.417 56.429l54.722-13.613 1.391 5.59-54.722 13.613zm3.528 14.159l121.419-30.206 1.572 6.317L71.517 76.905zm3.839 15.427l121.419-30.206 1.572 6.317L75.356 92.332zM197.76 76.25l-3.8 3.8L92.03 106.7l-13.32-3.11-.51-1.45 121.04-30.1.52 2.09-2 2.12zm-26.07 26.56l-45.92 11.42-14.04-3.21 68.63-17.07-8.67 8.86z" class="W"/><g fill="#fafafa"><path d="M142.65 118.42a2.08 2.08 0 0 1-.17.22l-.55.6-2.11 2.26-7.83 8.29-26 27.2-26.32 26.86-8.11 8-2.22 2.2-.59.56-.21.18a.91.91 0 0 1 .18-.21l.56-.59 2.16-2.2 8-8.1 26.25-27 26.06-27.12 7.91-8.2 2.15-2.21.58-.57zm111.51 29.9c0 .1-21.22-7.25-47.32-16.43l-47.18-16.79c.04-.1 21.22 7.25 47.31 16.42l47.19 16.8z"/><path d="M221.23 52.16l-.14.18-.4.49-1.71 1.9-6.34 6.89-21.27 22.43-21.76 22-6.7 6.56-1.81 1.74-.48.45c-.11.1-.17.15-.18.14l.15-.17.45-.48 1.79-1.81 6.6-6.64 21.65-22.07 21.35-22.31 6.43-6.81 1.76-1.84.47-.47a.73.73 0 0 1 .14-.18zm-78.58 66.26a1 1 0 0 1-.25 0l-.72-.17-2.88-.72-10.45-2.52-34.63-7.73-34.62-7.83-10.43-2.65-2.82-.77-.72-.2a1.06 1.06 0 0 1-.25-.09h.26l.71.17 2.88.71 10.46 2.53 34.63 7.72 34.62 7.83 10.43 2.65 2.81.77.72.21z"/></g><path d="M218.19 55.31s-.08-.24-.2-.72l-.52-2-2-7.84-7.24-28.84-1.18-4.68-.6-2.41-.33-1.22a8.33 8.33 0 0 0-.43-1.18 10.15 10.15 0 0 0-8.09-6 9.67 9.67 0 0 0-2.74 0c-.9.16-1.82.41-2.75.63l-5.64 1.44-11.8 2.91-52.4 13.07-52.48 13-11.78 2.95-2.91.72a16.47 16.47 0 0 0-2.73.82 10.21 10.21 0 0 0-4.25 3.45 10.46 10.46 0 0 0-1.27 2.38 11.35 11.35 0 0 0-.58 2.58 15.85 15.85 0 0 0 .63 5.13l2.06 9.64 6.21 29.1 1.67 7.91.43 2.06a10.17 10.17 0 0 1 .13.72s-.07-.24-.17-.72-.26-1.16-.46-2l-1.74-7.91-6.34-29.07-2.1-9.64a16.37 16.37 0 0 1-.63-5.22 10.63 10.63 0 0 1 .59-2.67 11.35 11.35 0 0 1 1.3-2.46 10.49 10.49 0 0 1 1.93-2.06 9.83 9.83 0 0 1 2.46-1.5 16.84 16.84 0 0 1 2.86-.9l2.82-.73 11.81-2.9 52.47-13.1 52.48-13 11.78-2.9 5.64-1.4 2.78-.64a10.53 10.53 0 0 1 7.9 2 10.4 10.4 0 0 1 3.32 4.15 7.62 7.62 0 0 1 .44 1.21l.33 1.23.6 2.43 1.16 4.68 7.12 28.89 1.91 7.85.49 2a2.74 2.74 0 0 1 .04.76z" class="W"/><path d="M268.4 280.71c0 .11-60.09.2-134.2.2S0 280.83 0 280.71s60.08-.2 134.2-.2l134.2.2z" class="U"/><path d="M137.81 17.37l-7.11 5.41.35 10.34-6.51-5.17-3.59 3.08-13.66-16.87 30.52 3.21z" class="Y"/><path d="M128.03 24.98c0 .32 3 8.14 3 8.14l-6.51-5.17z" class="S"/><path d="M128.03 24.98c0 .32 3 8.14 3 8.14l-6.51-5.17z" class="V"/><path d="M107.29 14.16l20.74 10.82 3.02 8.14-.35-10.34-23.41-8.62z" class="S"/><path d="M107.29 14.16l20.74 10.82 3.02 8.14-.35-10.34-23.41-8.62z" fill="#669ccc"/><path d="M164.8 153.63a9.24 9.24 0 0 1-3.69-.9 9.45 9.45 0 0 1 3.69.9zm5.88 1.42c0 .11-.54.07-1.15-.07s-1.08-.36-1.05-.47.54-.07 1.15.08 1.07.37 1.05.46zM146.41 31.77a6 6 0 0 1-1.88-.3 5.24 5.24 0 0 1-1.81-.57 4.22 4.22 0 0 1 1.9.19 4 4 0 0 1 1.79.68zm6.96 2.98a13 13 0 0 1-3.39-1.7 4 4 0 0 1 1.8.62c.95.47 1.64.98 1.59 1.08zm6.03 4.57c-.08.08-.72-.46-1.53-1.14s-1.43-1.25-1.34-1.34a4.22 4.22 0 0 1 1.62 1c.78.73 1.33 1.41 1.25 1.48zm4.6 6c-.1 0-.58-.64-1.15-1.51a5.74 5.74 0 0 1-.94-1.65c.08-.06.69.55 1.27 1.44a4.09 4.09 0 0 1 .82 1.72zm2.61 7.1a6 6 0 0 1-.64-1.79 5.38 5.38 0 0 1-.39-1.86 4.12 4.12 0 0 1 .77 1.75 4 4 0 0 1 .26 1.9zm.39 7.55a5.78 5.78 0 0 1-.08-1.9 5.22 5.22 0 0 1 .17-1.89 4.21 4.21 0 0 1 .22 1.9 4.1 4.1 0 0 1-.31 1.89zm-1.97 7.29a5.72 5.72 0 0 1 .54-1.82 5.81 5.81 0 0 1 .71-1.75 3.72 3.72 0 0 1-.38 1.88 3.85 3.85 0 0 1-.87 1.69zm-4.39 6.13c-.07-.08.49-.71 1.17-1.49s1.23-1.44 1.33-1.36a4 4 0 0 1-1 1.62c-.73.8-1.43 1.31-1.5 1.23zm-6.34 4.09a16.14 16.14 0 0 1 3.36-1.76 6.63 6.63 0 0 1-3.36 1.76zm-7.37 1.57a5.69 5.69 0 0 1 1.87-.36 6.05 6.05 0 0 1 1.9-.12 6.77 6.77 0 0 1-3.77.48zm-7.41-1.39a21.67 21.67 0 0 1 3.6 1.1 3.73 3.73 0 0 1-1.9-.25 3.65 3.65 0 0 1-1.7-.85zm-5.25-5.2c.11 0 .44.72 1 1.57s1.16 1.43 1.08 1.54-.78-.43-1.4-1.31a2.86 2.86 0 0 1-.68-1.8zm3.2-5.89c0 .12-.79.37-1.61 1s-1.26 1.31-1.36 1.25.22-.92 1.13-1.57a2.68 2.68 0 0 1 1.84-.68zm6.49 2.7c-.1.06-.56-.65-1.3-1.34s-1.51-1-1.44-1.14a2.63 2.63 0 0 1 1.74.85 2.8 2.8 0 0 1 1 1.63zm.25 7.34a8.89 8.89 0 0 1 .35-1.85 8.89 8.89 0 0 1 .35-1.85 3.15 3.15 0 0 1 0 1.92 3.23 3.23 0 0 1-.7 1.78zm-4.93 5.64c-.06-.09.59-.63 1.38-1.3a7.76 7.76 0 0 1 1.44-1.17 3.67 3.67 0 0 1-1.22 1.44 4.59 4.59 0 0 1-1.6 1.03zm-6.72 3.49a4.88 4.88 0 0 1 1.64-1 4.8 4.8 0 0 1 1.81-.61 9.19 9.19 0 0 1-3.45 1.58zm-6.76 3.44c-.06-.09.62-.6 1.53-1.15a4.36 4.36 0 0 1 1.77-.72c.06.11-.68.55-1.58 1.06a4.61 4.61 0 0 1-1.72.81zm-5.7 4.95c-.08-.08.41-.78 1.17-1.52a4.18 4.18 0 0 1 1.53-1.14c.07.08-.51.71-1.25 1.43s-1.39 1.3-1.45 1.23zm-4.37 6.19a4.16 4.16 0 0 1 .78-1.74c.55-.9 1.12-1.55 1.21-1.49a5.22 5.22 0 0 1-.87 1.69c-.55.89-1.02 1.59-1.12 1.54zm-2.76 7.05a4.17 4.17 0 0 1 .35-1.88 4 4 0 0 1 .83-1.72 12.94 12.94 0 0 1-1.18 3.59zm-.99 7.5a7 7 0 0 1 .26-3.78 5.51 5.51 0 0 1 0 1.9 5.22 5.22 0 0 1-.26 1.88zm.99 7.5a4.65 4.65 0 0 1-.59-1.81 3.87 3.87 0 0 1-.16-1.91 6.24 6.24 0 0 1 .55 1.83 4.65 4.65 0 0 1 .2 1.89zm2.93 6.97c-.09.06-.6-.63-1.07-1.58a3.9 3.9 0 0 1-.61-1.81 5.52 5.52 0 0 1 1 1.64 5.58 5.58 0 0 1 .68 1.75zm4.54 6.06c-.07.07-.72-.47-1.44-1.28a4.28 4.28 0 0 1-1-1.61c.09-.07.66.56 1.34 1.35s1.18 1.46 1.1 1.54zm5.84 4.82a4.11 4.11 0 0 1-1.68-.91c-.85-.62-1.44-1.24-1.38-1.33a5.4 5.4 0 0 1 1.61 1c.84.62 1.51 1.15 1.45 1.24zm6.82 3.26a4 4 0 0 1-1.86-.46 4.12 4.12 0 0 1-1.66-.95 5.81 5.81 0 0 1 1.81.58 6 6 0 0 1 1.71.83zm3.81.97c0 .1-.06.19-.1.18s-.05-.1 0-.21.07-.18.1-.18.02.11 0 .21z" class="U"/><path d="M121.95 127.936l1.607-4.893 7.857 2.58-1.607 4.893z" class="S"/><path d="M121.95 127.936l1.607-4.893 7.857 2.58-1.607 4.893z" fill="#ee4364"/><use xlink:href="#B" class="S"/><use xlink:href="#B" class="T"/><use xlink:href="#C" class="S"/><use xlink:href="#C" class="T"/><use xlink:href="#D" class="S"/><use xlink:href="#D" class="T"/><path d="M139.135 150.721l4.131-12.579 20.218 6.639-4.131 12.579z" class="V"/><use xlink:href="#E" class="S"/><use xlink:href="#E" class="T"/><use xlink:href="#F" class="S"/><use xlink:href="#F" class="T"/><use xlink:href="#G" class="S"/><use xlink:href="#G" class="T"/><path d="M144.34 141.25a3.15 3.15 0 0 1-3.721-5.084 3.15 3.15 0 0 1 4.401.674 3.16 3.16 0 0 1-.68 4.41z" fill="#f8bf15"/><path d="M144.49 138.13a15.9 15.9 0 0 1-2.12 1.31l-.51.28-.09.05v-.09a10 10 0 0 1-.86-1.7 9 9 0 0 1 1 1.6h-.14l.51-.29a14 14 0 0 1 2.21-1.16z" class="T"/><path d="M137.729 130.946l2.165-6.594 10.593 3.479-2.165 6.594z" class="S"/><path d="M137.729 130.946l2.165-6.594 10.593 3.479-2.165 6.594z" fill="#56b84e"/><use xlink:href="#H" class="S"/><use xlink:href="#H" class="T"/><use xlink:href="#I" class="S"/><use xlink:href="#I" class="T"/><use xlink:href="#J" class="S"/><use xlink:href="#J" class="T"/><path d="M65.41 45.34c-2.067 8.012-10.232 12.837-18.247 10.784s-12.854-10.21-10.814-18.229S46.538 25.023 54.56 27.05a15 15 0 0 1 10.85 18.29z" class="V"/><path d="M56.41 33.5c.26.11-1.44 5.14-3.81 11.23-.36.89-.72 1.74-1 2.57l-.18.45-.45-.17c-4.87-1.88-8.42-3.42-8.34-3.64s3.78.94 8.69 2.71l-.64.29 1-2.57c2.33-6.11 4.47-10.94 4.73-10.87z" class="T"/><path d="M134.68 172.35h30.1l11.91-33.3h-1.66l-11.82 31.67-28.53.17v1.46z" class="X"/><g class="U"><path d="M121.38 176.55l1.11 104.3h3.07l-1.25-105.07-2.93.77zm64.42-1.01c-.41 2 2.76 105.55 2.76 105.55h2.88l-2.34-105.55z"/><path d="M220.99 172.35H93.01v5.27h10.56L96.7 280.51l3 .17 6.88-103.06h103.64l5.03 103.1h3.01l-5.03-103.1h7.76v-5.27z"/></g><path d="M148.8 276.92v-7.87l-14.81-.15-.17 11.57.92.06c4.08.28 20.79 1.08 23.53.28 3.05-.92-9.47-3.89-9.47-3.89z" class="V"/><g fill="#f5f5f5"><path d="M139.18 280.37a5.08 5.08 0 0 0-1.85-3.17 5 5 0 0 0-3.45-1.12l-.05 4.14z"/><path d="M154.9 278.59s4.4 1.32 3.84 2-17.47.54-24.93-.19v-.33l19.73.38s.49-1.83 1.36-1.86z"/></g><g class="U"><path d="M133.61 280.05h.25l.72.06 2.69.14 8.89.26 8.89-.05 2.69-.08h.72-12.3c-3.46 0-6.61-.13-8.88-.2l-2.7-.09h-1z"/><path d="M153.56 280.71a6.14 6.14 0 0 1 .52-1.28 6 6 0 0 1 .93-1 2.37 2.37 0 0 0-1.44 2.3zm-4.35-2.26a2 2 0 0 0 .48-.56 1.78 1.78 0 0 0 .32-.66s-.25.23-.48.56a1.84 1.84 0 0 0-.32.66zm-1.19-.61s.27-.12.53-.35.44-.44.4-.47-.26.11-.52.33-.44.42-.41.49zm-.74-1.44a1.83 1.83 0 0 0 .77.11 1.68 1.68 0 0 0 .77-.08 1.66 1.66 0 0 0-.77-.1 1.68 1.68 0 0 0-.77.07zm-.25-.99a2.14 2.14 0 0 0 1.75.15l-1.75-.15z"/><path d="M149.73 277.17a3 3 0 0 0 1 0 5.77 5.77 0 0 0 1-.21 3 3 0 0 0 .58-.24.46.46 0 0 0 .24-.29.38.38 0 0 0-.14-.38 1.75 1.75 0 0 0-2.16.49 1.64 1.64 0 0 0-.32.63v.26a2.65 2.65 0 0 1 .44-.81 1.7 1.7 0 0 1 .82-.52 1.48 1.48 0 0 1 1.13.09c.16.12.09.29-.07.39a3.07 3.07 0 0 1-.54.22 6.52 6.52 0 0 1-1 .25 4.65 4.65 0 0 0-.98.12z"/><path d="M149.97 277.22a1 1 0 0 0 .13-.66 1.64 1.64 0 0 0-.26-.72 1 1 0 0 0-.79-.5.38.38 0 0 0-.29.44 1 1 0 0 0 .15.42 4.31 4.31 0 0 0 .44.59 1.5 1.5 0 0 0 .54.39l-.44-.48a3.6 3.6 0 0 1-.39-.57c-.13-.21-.22-.57 0-.61s.48.22.63.41a1.76 1.76 0 0 1 .25.62 2.51 2.51 0 0 1 .03.67zm-16.01-1.17a5.28 5.28 0 0 1 1.09.05 4.49 4.49 0 0 1 3.82 3.16c.21.63.23 1.06.26 1.06s0-.11 0-.3a3.64 3.64 0 0 0-.15-.8 4.51 4.51 0 0 0-3.95-3.22 3.75 3.75 0 0 0-.82 0 .53.53 0 0 0-.25.05zm1.6-6.12a49.33 49.33 0 0 0-.14 6.08 57.85 57.85 0 0 0 .14-6.08zm5.54 9.02a7.8 7.8 0 0 0 2.15.24 8.67 8.67 0 0 0 2.16-.15c0-.05-1 0-2.16 0s-2.15-.14-2.15-.09zm-2.94-.04a4.26 4.26 0 0 0 .17.44c.1.22.16.41.21.41s.08-.23 0-.49-.34-.39-.38-.36zm-1.06-1.37a.75.75 0 0 0 .21.35c.15.15.3.26.34.22s-.06-.19-.21-.35-.34-.25-.34-.22zm-1.58-.64s.21 0 .43.13.37.2.41.17-.08-.24-.35-.33-.5-.01-.49.03zm-1.1-.3a.45.45 0 0 0 .19.17c.12.05.24 0 .25 0s-.06-.12-.18-.17-.26-.05-.26 0z"/></g><path d="M177.93 268.94l-3.25-7.22-13.56 6 4.6 10.61.87-.32c3.83-1.43 19.4-7.57 21.56-9.42 2.44-2.11-10.22.35-10.22.35z" class="V"/><g fill="#f5f5f5"><path d="M170.62 276.05a5.15 5.15 0 0 0-3-2.15 5 5 0 0 0-3.59.41l1.66 3.79z"/><path d="M184.2 267.94s4.56-.61 4.32.28-15.7 7.68-22.8 10.06l-.1-.31 18.12-7.77s-.31-1.88.46-2.26z"/></g><g class="U"><path d="M165.41 278.05l.25-.08.72-.25 2.51-1 8.21-3.43 8.08-3.7 2.42-1.18.65-.34a.78.78 0 0 0 .22-.12l-.23.09-.67.3-2.47 1.18-8.11 3.64-8.18 3.48-2.48 1-.68.28z"/><path d="M183.86 270.43a5.87 5.87 0 0 1-.06-1.39 6.7 6.7 0 0 1 .43-1.31 2 2 0 0 0-.61 1.29 2 2 0 0 0 .24 1.41zm-4.87-.29a1.52 1.52 0 0 0 .2-.71c.07-.41.08-.72 0-.72s-.13.31-.2.72a1.42 1.42 0 0 0 0 .71zm-1.38-.09c.05 0 .2-.22.34-.53s.22-.58.17-.6-.19.21-.33.53-.23.6-.18.6zm-1.25-1a1.78 1.78 0 0 0 .71-.22c.4-.16.72-.34.68-.38a1.58 1.58 0 0 0-.72.22c-.37.18-.7.38-.67.38zm-.64-.77a2.3 2.3 0 0 0 1.66-.59 4.83 4.83 0 0 0-.83.3 4.31 4.31 0 0 0-.83.29z"/><path d="M178.91 268.76a3.07 3.07 0 0 0 .87-.38 7.08 7.08 0 0 0 .83-.61 3.19 3.19 0 0 0 .44-.46.5.5 0 0 0 .09-.36.34.34 0 0 0-.28-.29 1.75 1.75 0 0 0-1.82 1.68 1.35 1.35 0 0 0 0 .35.53.53 0 0 0 .08.25 2.86 2.86 0 0 1 .07-.92 1.69 1.69 0 0 1 .53-.81 1.5 1.5 0 0 1 1.07-.38c.19 0 .2.22.09.39a3.16 3.16 0 0 1-.4.42 6.92 6.92 0 0 1-.8.63l-.77.49z"/><path d="M179.15 268.71a1 1 0 0 0-.16-.65 1.68 1.68 0 0 0-.52-.54 1 1 0 0 0-.92-.12.38.38 0 0 0-.1.52 1 1 0 0 0 .32.32 3.13 3.13 0 0 0 .65.35 1.33 1.33 0 0 0 .65.13 6 6 0 0 1-.6-.25 3.67 3.67 0 0 1-.6-.36c-.2-.13-.42-.42-.22-.56a.87.87 0 0 1 .72.11 1.66 1.66 0 0 1 .49.46 3.58 3.58 0 0 1 .29.59zm-15.05 5.53a5.28 5.28 0 0 1 1-.4 4.65 4.65 0 0 1 4.8 1.27c.46.5.65.88.68.86a1.39 1.39 0 0 0-.12-.28 4.19 4.19 0 0 0-.47-.66 4.55 4.55 0 0 0-2.26-1.43 4.64 4.64 0 0 0-2.66.1 3.46 3.46 0 0 0-.72.36.77.77 0 0 0-.25.18z"/><path d="M163 267.97a22.63 22.63 0 0 0 1.1 2.87 27.72 27.72 0 0 0 1.27 2.77 23.87 23.87 0 0 0-1.11-2.84 28.15 28.15 0 0 0-1.26-2.8zm8.74 5.98a8.35 8.35 0 0 0 2.07-.67 7.66 7.66 0 0 0 1.91-1l-2 .86-1.98.81zm-2.64 1.16c0 .05.16.16.34.33s.31.32.35.29 0-.24-.23-.43-.46-.25-.46-.19zm-1.57-.8c0 .05.13.15.34.23s.38.1.4.06-.13-.15-.33-.23-.39-.13-.41-.06zm-1.68.05c0 .05.21 0 .44-.05h.44a.53.53 0 0 0-.45-.15c-.28.02-.46.17-.43.2zm-1.14.18c0 .05.11.09.24.08s.24-.05.24-.1-.11-.08-.24-.08-.24.05-.24.1z"/></g><use xlink:href="#K" class="S"/><use xlink:href="#K" class="Y"/><path d="M69.56 101.84c-.06-.9-1.9 1.77-3.09.9-2.37-1.73-.53-8.26-.91-11.27-.49-3.92-1-11.58.34-15.22 1.39-4.46 6-3.7 9.82-5.24a24 24 0 0 1 11.9-1.51 5 5 0 0 1 2.1.53 2.32 2.32 0 0 1 1.2 1.86 1.4 1.4 0 0 1-1.24 1.51h-.09a19 19 0 0 1 4.5 1.07 2.7 2.7 0 0 1 1.46 1.17 2.44 2.44 0 0 1-.2 2.2 6.18 6.18 0 0 1-1.52 1.58 1.41 1.41 0 0 1 1.64 1.22h0a3.28 3.28 0 0 1-.58 2.31c-.43.67-1 1.22-1.43 1.86-1.81 2.68-3.48 6.7-3 10z" class="U"/><path d="M68.65 116.49l14.53-.26c.19-1.68.47-8.22.47-8.22s6.08-.56 6.52-6.57.26-19.89.26-19.89h0a20.94 20.94 0 0 0-21.16 1.35l-.94.63z" class="Z"/><g class="U"><path d="M88.42 91.98a.88.88 0 0 1 0-1.24.87.87 0 0 1 1.24 0 .88.88 0 0 1 0 1.24.87.87 0 0 1-1.23 0z"/><path d="M89.95 90.52c-.1.1-.66-.39-1.49-.45s-1.44.34-1.54.22.06-.23.33-.41a2.08 2.08 0 0 1 2.43.18c.24.22.32.41.27.46zm-9.59.13a.88.88 0 0 1 .22 1.22.88.88 0 0 1-1.44-1h0a.89.89 0 0 1 1.22-.21z"/><path d="M80.91 90.7c-.11.09-.67-.4-1.49-.46s-1.44.34-1.54.23.06-.23.34-.41a2 2 0 0 1 2.41.18c.25.21.33.41.28.46zm2.9 7.03a4.13 4.13 0 0 1 1.35-.2c.22 0 .4 0 .42-.16a1.13 1.13 0 0 0-.12-.63l-.55-1.69a22.07 22.07 0 0 1-1.14-4.51 23.48 23.48 0 0 1 1.59 4.37l.52 1.74a1.42 1.42 0 0 1 .06.91.59.59 0 0 1-.4.32 1.09 1.09 0 0 1-.36 0 4 4 0 0 1-1.37-.15z"/></g><path d="M81.1 98.48c-.83-.57 2.3 1.44 4 1.44a2.3 2.3 0 0 1-2.76.72c-1.83-.76-1.24-2.16-1.24-2.16z" class="T"/><path d="M83.67 107.92a14 14 0 0 1-7.7-2.71c0 0 1.59 4.44 7.62 4.27z" fill="#a36957"/><path d="M68.1 89.87l.12 4.87a27.44 27.44 0 0 0 3.12 1 12.49 12.49 0 0 1-.18-5.69c.56-2.48 3.44-4.27 3.44-4.27s-3.67-2.34-1.34-3.19 3.13 2.06 6.6 2.62c11.45 2 11.06-2.77 11.06-2.77s1.44-1.58-1.5-3.32-10.32-2.32-14.32-.9c-7.91 2.79-8.38 5.57-8.38 8 0 3.53 1.38 3.65 1.38 3.65z" class="U"/><path d="M69.48 88.86c-.13 0-4.45-.61-4 4.5s5.43 3 5.43 2.88-1.43-7.38-1.43-7.38z" class="Z"/><path d="M69.16 94.53a2.14 2.14 0 0 1-.23.15.87.87 0 0 1-.67.06 2.15 2.15 0 0 1-1.16-1.89 3 3 0 0 1 .14-1.3 1.06 1.06 0 0 1 .62-.72.47.47 0 0 1 .55.2c.08.14 0 .25.08.26s.1-.1 0-.31a.55.55 0 0 0-.22-.3.75.75 0 0 0-.51-.09 1.26 1.26 0 0 0-.87.86 3.08 3.08 0 0 0-.19 1.44 2.35 2.35 0 0 0 1.47 2.16 1 1 0 0 0 .8-.21c.19-.15.2-.28.19-.31z" fill="#a36957"/><path d="M126.57 157.79s7.19-.35 8.63.31c2.49 1.08 9.89 12.69 9.52 12.69h-3.43l-11.5-4.36-2.71.68z" class="Z"/><path d="M157.49 191.12l21.55 74.13c.05-.37-19.28 9.29-19.28 9.29l-13-53.87z" class="U"/><g class="X"><path d="M159.34 275l20.37-9.94-.88-2.73-20.53 9.96 1.04 2.71zm-2.67-27.41c-.11 0-.34-.43-.51-1s-.24-1.12-.13-1.15.33.43.51 1 .23 1.12.13 1.15zm1.33 4.37c-.11 0-.35-.43-.53-1s-.25-1.11-.15-1.15.34.43.52 1 .26 1.1.16 1.15zm1.38 4.31c-.1 0-.34-.42-.54-1s-.26-1.11-.16-1.14.34.42.54 1 .26 1.14.16 1.14zm1.46 4.31c-.11 0-.36-.41-.56-1s-.29-1.11-.18-1.14.35.41.56 1 .28 1.14.18 1.14zm1.5 4.32c-.1 0-.35-.42-.56-1s-.31-1.1-.2-1.14.35.41.57 1 .31 1.08.19 1.14zm1.56 4.25c-.11 0-.37-.41-.58-1s-.32-1.1-.22-1.1.37.41.58 1 .34 1.06.22 1.1z"/><path d="M162.77 270.94a3.3 3.3 0 0 1-.43-.78l-1-2.21-2.78-7.5-2.41-7.61-.72-2.32a2.9 2.9 0 0 1-.2-.87 4.89 4.89 0 0 1 .34.82l.81 2.29 2.52 7.57 2.66 7.51.88 2.25a4.8 4.8 0 0 1 .33.85z"/></g><path d="M57.1 185.95c.18-4-2.06 21.65 17.62 22.33s59.89.38 59.89.38l-4.7 64.94h23.61l4.93-69.09s2.52-20-11.18-22.56c-8.57-1.6-61.85-2.12-61.85-2.12z" class="U"/><g class="X"><path d="M129.41 273.73h24.86v-3.86l-24.86.03v3.83z"/><path d="M90.51 205.23a1 1 0 0 1 .25 0h.72l2.88-.13 10.67-.41 36-1.24h.23v.23l-.83 8.28-.91 11.85c-.29 3.85-.72 7.51-1.09 11l-2 18.63-1.35 12.55-.39 3.42-.11.88c-.03.22 0 .2 0 .3a1.5 1.5 0 0 1 0-.3c0-.22 0-.52.07-.89l.32-3.42 1.23-12.57 1.87-18.64 1.05-11 .91-11.84c.23-2.88.5-5.65.83-8.31l.2.23-36 1.1-10.68.29-2.87.06h-.72a.9.9 0 0 1-.28-.07zm2.27-2.81c0 .11-.5.21-1.13.22s-1.14-.05-1.14-.16.5-.22 1.13-.23 1.14.06 1.14.17zm4.55-.11c0 .11-.5.21-1.13.23s-1.14-.06-1.15-.17.51-.21 1.14-.23 1.14.07 1.14.17zm4.55-.1c0 .11-.5.2-1.13.23s-1.14-.07-1.15-.18.51-.21 1.14-.22 1.14.06 1.14.17zm4.55-.11c0 .11-.5.21-1.13.23s-1.14-.07-1.15-.17.51-.21 1.14-.23 1.14.06 1.14.17zm4.55-.05c0 .11-.5.21-1.13.22s-1.14-.06-1.15-.17.51-.21 1.14-.23 1.14.01 1.14.18zm4.55-.16c0 .11-.5.21-1.13.22s-1.14-.06-1.15-.17.51-.21 1.14-.22 1.14.06 1.14.17zm4.57-.11c0 .11-.5.21-1.13.22s-1.14-.06-1.15-.17.51-.21 1.14-.22 1.14.06 1.14.17zm4.53-.11c0 .11-.5.21-1.13.23s-1.14-.06-1.15-.18.51-.2 1.14-.22 1.14.07 1.14.17zm4.55-.1c0 .1-.5.2-1.13.22s-1.14-.06-1.14-.17.5-.21 1.13-.23 1.14.07 1.14.18zm4.53-.11c0 .11-.51.21-1.14.22s-1.14-.06-1.14-.16.5-.22 1.13-.23 1.15.06 1.15.17zm4.57-.11c0 .11-.51.21-1.13.22s-1.14-.05-1.14-.16.5-.21 1.13-.23 1.14.06 1.14.17zm4.55-.11c0 .12-.51.22-1.13.23s-1.14-.06-1.14-.17.5-.21 1.13-.22 1.14.05 1.14.16zm0 4.13c-.12 0-.15-.53-.09-1.15s.2-1.12.3-1.12.15.53.09 1.15-.19 1.13-.3 1.12zm-.45 4.53c-.11 0-.15-.53-.08-1.15s.2-1.12.3-1.12.15.53.09 1.15-.2 1.13-.31 1.12zm-.44 4.53c-.11 0-.15-.53-.09-1.15s.2-1.13.31-1.12.14.53.09 1.16-.21 1.12-.31 1.11zm-.45 4.53c-.11 0-.14-.53-.09-1.16s.21-1.12.31-1.11.15.53.09 1.16-.19 1.12-.31 1.11zm-.45 4.53c-.1 0-.14-.53-.08-1.16s.2-1.12.31-1.1.15.52.08 1.15-.2 1.12-.31 1.11zm-.44 4.56c-.11 0-.14-.53-.08-1.16s.19-1.12.3-1.1.15.52.09 1.15-.2 1.11-.31 1.11zm-.42 4.5c-.12 0-.16-.53-.09-1.15s.19-1.13.31-1.12.14.53.08 1.15-.21 1.12-.3 1.12zm-.46 4.5c-.11 0-.16-.53-.09-1.15s.2-1.13.31-1.12.14.53.08 1.15-.2 1.12-.3 1.12zm-.45 4.56c-.11 0-.14-.53-.09-1.15s.2-1.13.31-1.12.15.53.09 1.15-.2 1.13-.31 1.12zm-.45 4.52c-.1 0-.14-.52-.08-1.15s.2-1.12.31-1.11.14.53.08 1.15-.2 1.13-.31 1.11zm-.44 4.53c-.11 0-.15-.52-.09-1.15s.2-1.12.31-1.11.15.52.09 1.15-.2 1.13-.31 1.11zm-.44 4.53c-.12 0-.15-.52-.09-1.15s.2-1.12.31-1.11.15.53.08 1.16-.22 1.12-.3 1.1zm-.45 4.53c-.1 0-.15-.52-.08-1.15s.19-1.12.31-1.11.14.53.08 1.15-.2 1.13-.31 1.11zm-.39 4.54c-.11 0-.15-.53-.09-1.16s.2-1.12.31-1.11.14.53.09 1.15-.25 1.12-.31 1.12zm-.52 4.53c-.11 0-.14-.53-.09-1.15s.21-1.13.31-1.12.15.53.09 1.15-.18 1.12-.31 1.12zm-.21 2.4c-.11 0-.2-.05-.19-.09s.09-.06.2-.05.19.05.19.09-.1.05-.2.05z"/></g><g class="U"><path d="M137.87 205.63a6.37 6.37 0 0 1-1.54 1.69 6.86 6.86 0 0 1-1.82 1.4 13.54 13.54 0 0 1 3.36-3.09z"/><path d="M139.51 206.51a10.72 10.72 0 0 1-2.54 1.36 10.42 10.42 0 0 1-2.7 1 11 11 0 0 1 2.53-1.36 10.87 10.87 0 0 1 2.71-1z"/></g><path d="M91.49 154.98s-2.39-25.8-6.69-37.09l.85-.64-1.27-4.45-16-1.94.24 3.47a11.43 11.43 0 0 0-5.47 5.21c-5.75 12.17-2.88 26.39-6 52.74 0 0-3.59 12.36.12 16.22l34.91-8.13-1.65-8c15.24-.29 40.3-3.09 40.3-3.09l-.72-14.42-38.66.09" class="X"/><path d="M84.35 112.78a11.82 11.82 0 0 1 1.16 2.88 5.08 5.08 0 0 1 .31 1.22.85.85 0 0 1-.2.59 1 1 0 0 1-.43.31c-.6.18-1 0-1 0s.37-.07.83-.28a.68.68 0 0 0 .39-.64 7.08 7.08 0 0 0-.31-1.11 12.62 12.62 0 0 1-.75-2.97z" class="W"/><g class="U"><path d="M88.17 131.99c0 .11-6.47.2-14.38.2s-14.38-.09-14.38-.2 6.47-.2 14.38-.2l14.38.2zm-1.51-7.27c0 .11-5.7.2-12.73.2s-12.74-.09-12.74-.2 5.7-.19 12.74-.19 12.73.08 12.73.19zm-2.1-6.39c0 .11-4.71.19-10.53.19s-10.54-.08-10.54-.19 4.72-.2 10.54-.2 10.53.12 10.53.2zm-.2-4.51l-8.08.2a80.53 80.53 0 0 1-8.07-.2c0-.11 3.59-.2 8.07-.2l8.08.2zm4.82 25.16c0 .11-6.81.2-15.2.2s-15.21-.09-15.21-.2 6.81-.2 15.21-.2l15.2.2zm1.24 7.07c0 .1-7.08.19-15.82.19s-15.81-.09-15.81-.19 7.08-.21 15.81-.21l15.82.21zm.77 6.43c0 .11-7.26.2-16.21.2s-16.21-.09-16.21-.2 7.26-.2 16.21-.2l16.21.2zm35.38 7.08c0 .1-15.31.19-34.19.19s-34.2-.09-34.2-.19 15.31-.21 34.2-.21l34.19.21zm.27 5.66c0 .12-15.43.2-34.45.2s-34.47-.08-34.47-.2 15.43-.19 34.47-.19l34.45.19zm-36.81 6.99c0 .11-7.37.2-16.46.2s-16.47-.09-16.47-.2 7.37-.2 16.47-.2l16.46.2zm1.67 6.48c0 .11-8 .2-17.9.2s-17.9-.09-17.9-.2 8-.19 17.9-.19l17.9.19z"/><path d="M61.22 180.41c-.11 0-.2-12.57-.2-28.08l.2-28.08c.11 0 .2 12.58.2 28.08l-.2 28.08zm8.64-.69c-.11 0-.2-15.37-.2-34.33l.2-34.33c.13 0 .2 15.36.2 34.33l-.2 34.33zm9.54-1.03c-.11 0-.2-14.81-.2-33.07l.2-33.06c.11 0 .2 14.81.2 33.06l-.2 33.07zm8.01 1.7c-.11 0-.19-11.63-.19-26l.19-26c.11 0 .2 11.63.2 26l-.2 26zm8.49-25.44a16.42 16.42 0 0 1 .08 2.53l-.09 6.08-.2 6.08a16.26 16.26 0 0 1-.2 2.52 16.29 16.29 0 0 1-.08-2.52l.09-6.09.2-6.09a15.08 15.08 0 0 1 .2-2.51zm9.05.3a14.45 14.45 0 0 1 .08 2.37l-.07 5.7-.2 5.7a12.29 12.29 0 0 1-.2 2.35 15.39 15.39 0 0 1-.08-2.35l.08-5.71.2-5.7a13.34 13.34 0 0 1 .19-2.36zm9-.2a12.62 12.62 0 0 1 .09 2.3l-.07 5.52-.2 5.52a12.68 12.68 0 0 1-.19 2.3 14.62 14.62 0 0 1-.09-2.29l.08-5.53.19-5.52a13.64 13.64 0 0 1 .19-2.3zm9.04-.21a11 11 0 0 1 .11 2.21l-.07 5.36-.19 5.36a12.71 12.71 0 0 1-.18 2.22 12.66 12.66 0 0 1-.1-2.22l.08-5.36.18-5.37a12.61 12.61 0 0 1 .17-2.2zm-34.64 3.36a7.52 7.52 0 0 1 3.35-3.75 18.54 18.54 0 0 1-1.7 1.85 19.88 19.88 0 0 1-1.65 1.9zm2.07.17a4 4 0 0 1 1.43-3.92c.09.08-.51.81-.9 1.89s-.38 2.03-.53 2.03zm36.82 10.86a59.13 59.13 0 0 1-.82-6.89 61.87 61.87 0 0 1-.44-6.94 57.23 57.23 0 0 1 .83 6.9 61.83 61.83 0 0 1 .43 6.93zm.45-11.11a1.13 1.13 0 0 0-.23.55.75.75 0 0 0 .18.53.55.55 0 0 0 .6.08.56.56 0 0 0 .36-.5.72.72 0 0 0-.26-.49c-.28-.22-.55-.15-.57-.21s.27-.26.72 0a.94.94 0 0 1 .48.72.91.91 0 0 1-.56.88.86.86 0 0 1-1.22-1c.13-.54.51-.63.5-.56z"/><path d="M91.44 154.91h.18.53l2.06.12 7.86.08c6.76-.05 16.43-.3 28-.72h.17v.16l.72 14.51v.16h-.15c-1.84.35-3.7.49-5.61.69l-5.81.5-12.14.92-15.2 1h0a18.45 18.45 0 0 1-11.67-4.76 14.36 14.36 0 0 1-3.39-5 35.73 35.73 0 0 1-1.7-5.47c-1.78-7.19-2.88-13.74-3.77-19.18l-1.11-7.31a44.27 44.27 0 0 1-.64-5.51 6.76 6.76 0 0 1 .72-3.39 3.36 3.36 0 0 1 .72-1 5.94 5.94 0 0 0-.67 1 6.84 6.84 0 0 0-.63 3.36 48.49 48.49 0 0 0 .71 5.49l1.17 7.3c.9 5.42 2.06 11.92 3.85 19.12a35.6 35.6 0 0 0 1.7 5.43 14 14 0 0 0 3.32 4.85 18 18 0 0 0 11.44 4.79h0l15.19-1 12.13-.92 5.81-.49c1.89-.2 3.79-.34 5.55-.67l-.15.19-.71-14.51.18.16-28 .62c-3.39 0-6-.07-7.86-.18-.9 0-1.6-.11-2.07-.18l-.52-.06a.71.71 0 0 1-.21-.1z"/><path d="M91.44 154.91a7.11 7.11 0 0 1-.37-1.13l-.84-3.12c-.72-2.63-1.55-6.31-2.47-10.36l-2.39-10.38-.72-3.14a5.75 5.75 0 0 1-.22-1.17 7.46 7.46 0 0 1 .37 1.13c.22.72.51 1.79.86 3.11.72 2.63 1.6 6.3 2.52 10.36l2.32 10.39.72 3.15a7.65 7.65 0 0 1 .22 1.16zm-7.04-41.86a3 3 0 0 1-.08.79l-.35 2.16a9.59 9.59 0 0 1-.3 1.49 1.1 1.1 0 0 1-.64.72 2 2 0 0 1-1 0l-3.83-.93-6.84-2.06-2.07-.64a3.39 3.39 0 0 1-.71-.28 2.6 2.6 0 0 1 .78.13l2.11.53 6.87 1.94 3.8 1a1.48 1.48 0 0 0 .78 0 .7.7 0 0 0 .45-.48c.16-.46.22-1 .33-1.44l.47-2.11a2.59 2.59 0 0 1 .23-.82zM71.82 212.6l5.03 68.2 2.09-.49-.78-66.27-6.34-1.44zm-21.29 2.37l-15.26 65.75h2.76l21.84-65.75h-9.34zm40.36 0l20.82 65.75h2.23L97.4 214.97h-6.51z"/><path d="M93.68 219.39l-46.65 30.49v1.66l47.95-32.15h-1.3z"/></g><use xlink:href="#L" class="S"/><use xlink:href="#L" class="Y"/><path d="M37.43 169.63l6.07 46.47 47.39-1.13-.12-28.22a7.84 7.84 0 0 0-8.63-8l-36.13 3.3-4.76-49.25-4.81-.41a3.39 3.39 0 0 0-3.59 3.83z" class="V"/><defs ><path id="B" d="M131.4 125.64a32.83 32.83 0 0 1-4.56 1.87h-.14l-.08-.12-.14-.17a31.8 31.8 0 0 1-2.94-4.22 34.6 34.6 0 0 1 3.26 4l.13.17-.23-.07a31.32 31.32 0 0 1 4.7-1.46z"/><path id="C" d="M125.8 126.05a5.87 5.87 0 0 1-1.85 1.13 6.41 6.41 0 0 1-2 .77 6 6 0 0 1 1.86-1.13 6.35 6.35 0 0 1 1.99-.77z"/><path id="D" d="M129.93 130.57a5.78 5.78 0 0 1-1-1.82c-.48-1.07-.8-2-.65-2a6 6 0 0 1 1 1.81 5.61 5.61 0 0 1 .65 2.01z"/><path id="E" d="M163.45 144.8a6.07 6.07 0 0 1-.9.41l-2.52 1-8.41 3.14-.14.05-.08-.12-.34-.44-5.6-7.49-1.69-2.3a5.42 5.42 0 0 1-.57-.87 4.83 4.83 0 0 1 .72.78l1.76 2.22 5.69 7.42.34.44-.22-.07 8.45-3 2.56-.87a6.37 6.37 0 0 1 .95-.3z"/><path id="F" d="M149.1 145.87a41 41 0 0 1-4.9 2.61 40.35 40.35 0 0 1-5.07 2.26 38.42 38.42 0 0 1 4.9-2.62 37.6 37.6 0 0 1 5.07-2.25z"/><path id="G" d="M159.68 157.49a36.47 36.47 0 0 1-2.3-4.8 35.29 35.29 0 0 1-1.94-5 37.85 37.85 0 0 1 2.3 4.81 35.65 35.65 0 0 1 1.94 4.99z"/><path id="H" d="M150.46 127.84a2.52 2.52 0 0 1-.47.22l-1.32.51-4.4 1.64h-.08v-.06l-.17-.23-2.94-3.93-.86-1.17a2.8 2.8 0 0 1-.3-.46 3.52 3.52 0 0 1 .36.41l.93 1.17 3 3.88.18.23h-.11l4.43-1.58 1.33-.45a2.22 2.22 0 0 1 .42-.18z"/><path id="I" d="M142.94 128.4a23.47 23.47 0 0 1-2.57 1.37 21.74 21.74 0 0 1-2.66 1.18 40.31 40.31 0 0 1 5.23-2.55z"/><path id="J" d="M148.49 134.49a19.44 19.44 0 0 1-1.21-2.52 21.57 21.57 0 0 1-1-2.6 35.72 35.72 0 0 1 2.23 5.12z"/><path id="K" d="M43.5 216.1l-10.7-79.93a3.38 3.38 0 0 1 2.89-3.79 3.3 3.3 0 0 1 .7 0l25.79 2.16a4.88 4.88 0 0 1 4.45 4.46l6.28 75.68z"/><path id="L" d="M43.55 216.1l60.11-1.05a3.85 3.85 0 0 0 3.78-3.92 2.69 2.69 0 0 0 0-.4h0a3.83 3.83 0 0 0-3.87-3.39l-61 1z"/></defs></svg>