<svg width="451" height="451" fill="none" xmlns="http://www.w3.org/2000/svg"><mask id="a" style="mask-type:luminance" maskUnits="userSpaceOnUse" x="0" y="0" width="451" height="451"><path d="M451 0H0v451h451V0Z" fill="#fff"/></mask><g mask="url(#a)"><path d="M428.667 116.426A220.59 220.59 0 0 0 414.65 93.78a218.666 218.666 0 0 0-11.367-14.744h-.01a217.968 217.968 0 0 0-23.496-23.94 206.062 206.062 0 0 0-5.239-4.427c-15.973-13.08-33.685-23.734-52.597-31.637l.167 28.448 1.811 324.295h-156.85l-8.821-323.683.657-27.994C82.006 53.391 28.012 131.67 28.012 222.933a226.251 226.251 0 0 0 6.947 55.825 220.816 220.816 0 0 0 7.086 22.727c1 2.7 2.053 5.374 3.162 8.026a176.14 176.14 0 0 0 1.643 3.845 177.724 177.724 0 0 0 2.252 4.966 162.3 162.3 0 0 0 1.848 3.845 172.053 172.053 0 0 0 2.522 4.971 189.15 189.15 0 0 0 2.057 3.846c11.28 20.537 25.684 39.082 42.664 54.929a214.443 214.443 0 0 0 15.106 12.852c37.021 28.636 82.073 44.119 128.38 44.119 46.306 0 91.36-15.483 128.38-44.119 2.846-2.2 5.635-4.475 8.364-6.822a203.013 203.013 0 0 0 5.349-4.745c.464-.427.929-.853 1.388-1.285 15.654-14.609 29.127-31.517 39.981-50.179a218.19 218.19 0 0 0 10.828-21.16c.853-1.913 1.68-3.842 2.482-5.789a221.424 221.424 0 0 0 10.392-31.795v-.006l.184-.76c.37-1.532.724-3.075 1.064-4.617v-.005a219.24 219.24 0 0 0 2.782-15.094c.094-.653.189-1.306.28-1.958.034-.237.069-.473.095-.709v-.006a230.15 230.15 0 0 0 1.313-11.886c.52-6.267.78-12.605.784-19.016.057-37.261-9.126-73.919-26.678-106.507Z" fill="#F2F2F2"/><path d="M218.183 75.446c16.394 0 29.685-13.68 29.685-30.558 0-16.876-13.291-30.558-29.685-30.558s-29.685 13.682-29.685 30.558c0 16.877 13.291 30.558 29.685 30.558Z" fill="#FFD68D"/><path d="M309.071 43.294a110.403 110.403 0 0 0-8.459-8.267c-5.783-5.048-12.186-9.34-19.322-12.045a43.543 43.543 0 0 0-8.29-2.246c-.34-.057-.674-.113-1.014-.16a.362.362 0 0 0-.075 0 .87.87 0 0 0-.16-.03 35.367 35.367 0 0 0-2.087-.216 35.173 35.173 0 0 0-11.206 1.038 36.547 36.547 0 0 0-6.192 2.221 54.97 54.97 0 0 0-5.808 3.388 34.643 34.643 0 0 1-3.097 1.722 37.83 37.83 0 0 1-9.737 3.208c-2.276.42-4.581.654-6.893.699-2.007.041-3.9.113-5.803.859a13.891 13.891 0 0 0-5.326 3.69 14.453 14.453 0 0 0-3.149 5.758.947.947 0 0 0 .039.574.908.908 0 0 0 .361.44c.514.38 1.014.812 1.558 1.15.481.226.994.37 1.518.427.859.185 1.72.365 2.583.54 3.17.648 6.355 1.222 9.553 1.722a212.772 212.772 0 0 0 19.406 2.118c.04.006.08.01.12.01 7.35.457 14.717.531 22.073.222 1.114-.047 2.222-.103 3.336-.17a209.644 209.644 0 0 0 26.643-3.254c3.026-.566 6.04-1.196 9.044-1.892a.873.873 0 0 0 .384-.24.931.931 0 0 0 .221-.864.922.922 0 0 0-.221-.402ZM247.371 84.04a97.863 97.863 0 0 0-14.137-12.81 66.314 66.314 0 0 0-5.229-3.43 54.81 54.81 0 0 0-8.415-4.071 43.204 43.204 0 0 0-9.304-2.406c-.025-.005-.05 0-.075-.005l-.155-.031a33.426 33.426 0 0 0-4.644-.293c-1.114 0-2.233.061-3.341.174a35.971 35.971 0 0 0-5.313.947 32.09 32.09 0 0 0-2.568.77c-1.23.418-2.439.902-3.619 1.45l-.055.026a53.355 53.355 0 0 0-5.754 3.362c-.04.026-.084.052-.125.077a35.878 35.878 0 0 1-6.631 3.198 39.55 39.55 0 0 1-6.083 1.655c-2.275.422-4.58.654-6.892.694-2.007.042-3.9.113-5.798.864a13.892 13.892 0 0 0-5.328 3.69 14.446 14.446 0 0 0-3.152 5.758.955.955 0 0 0 .04.574.917.917 0 0 0 .36.44c.514.38 1.019.807 1.558 1.146.48.227.993.371 1.518.427a204.77 204.77 0 0 0 12.14 2.262c4.391.683 8.798 1.23 13.224 1.64 2.098.2 4.197.365 6.298.493a213.81 213.81 0 0 0 16.18.39c1.114-.015 2.227-.04 3.341-.077 6.612-.2 13.204-.71 19.776-1.531a211.918 211.918 0 0 0 21.799-3.882.874.874 0 0 0 .383-.237.916.916 0 0 0 .221-.862.914.914 0 0 0-.22-.402Z" fill="#5790CC"/><path d="m173.379 2.029 26.152 372.021-52.304 4.778V6.762c6.233-5.011 15.179-5.795 26.152-4.733ZM302.469 2.029 276.317 374.05l52.304 4.778V6.762c-6.233-5.011-15.18-5.795-26.152-4.733Z" fill="#CCC"/><path d="M329.851 6.924C328.228 2.828 324.777 0 320.787 0H154.504c-5.549 0-10.059 5.48-10.059 12.222v369.759c-.048 3.422 1.195 6.729 3.466 9.225a9.491 9.491 0 0 0 4.356 2.689c.728.207 1.48.31 2.237.308h166.283a8.1 8.1 0 0 0 2.237-.308c4.475-1.239 7.821-6.105 7.821-11.914V12.222a14.412 14.412 0 0 0-.994-5.298Zm-2.342 375.057c0 4.503-3.016 8.169-6.722 8.169H154.504c-3.071 0-5.673-2.519-6.468-5.947a9.766 9.766 0 0 1-.254-2.222V12.222c0-4.503 3.017-8.162 6.722-8.162h166.283a5.56 5.56 0 0 1 1.998.37c2.731 1.032 4.724 4.133 4.724 7.792v369.759Z" fill="#CCC"/><path d="M329.177 112.393H146.115v3.437h183.062v-3.437ZM329.177 41.45H146.115v3.437h183.062V41.45ZM329.177 169.671H146.115v3.437h183.062v-3.437Z" fill="#CCC"/><path d="M205.52 1.542h-3.339V218.36h3.339V1.542ZM273.11 1.542h-3.338V218.36h3.338V1.542ZM350.042 372.724h-219.23c-3.983.005-7.801 1.635-10.617 4.534-2.816 2.899-4.4 6.829-4.405 10.929a15.718 15.718 0 0 0 1.084 5.753 15.387 15.387 0 0 0 5.523 7.057 14.728 14.728 0 0 0 8.415 2.659h219.23a14.7 14.7 0 0 0 7.473-2.052 15.257 15.257 0 0 0 5.491-5.607c.377-.659.704-1.347.979-2.057a15.696 15.696 0 0 0 1.083-5.753c-.006-4.1-1.591-8.031-4.407-10.929-2.817-2.899-6.636-4.53-10.619-4.534Z" fill="#CCC"/><path d="M329.177 210.34h-181.95v11.456h181.95V210.34Z" fill="#CCC"/><path d="M236.533 206.903h3.338c1.624 0 3.18.664 4.329 1.846a6.392 6.392 0 0 1 1.792 4.454h-15.579c0-.827.157-1.646.465-2.411a6.285 6.285 0 0 1 1.327-2.043 6.105 6.105 0 0 1 1.986-1.367 5.976 5.976 0 0 1 2.342-.479Z" fill="#CCC"/><path d="M241.411 242.647c19.045 0 34.483-15.892 34.483-35.495 0-19.605-15.438-35.496-34.483-35.496-19.043 0-34.482 15.891-34.482 35.496 0 19.603 15.439 35.495 34.482 35.495Z" fill="#FFB8B8"/><path d="M202.946 173.005c.26-4.077 2.879-8.248 11.199-10.428 0 0 14.278-18.795 33.681-8.939 0 0 9.406-1.666 16.382 8.381 0 0 6.915-4.198 9.833 3.243 0 0 8.11 15.18 5.124 30.663-2.986 15.484-4.514 17.416-4.514 17.416s3.806-32.027-18.115-29.806c-21.923 2.22-39.571-5.715-44.536 11.66-4.122 14.428-3.603 21.921-3.603 21.921s-13.784-14.393-9.098-25.727c2.397-5.796 3.245-12.099 3.647-18.384Z" fill="#2F2E41"/><path d="M147.642 401.139h190.73c-1.276-14.977-2.109-72.227-2.109-75.995 0-16.618-13.21-34.755-13.21-34.755l-4.728-2.69-39.488-12.682-10.219-13.666a11.439 11.439 0 0 0-4.028-3.387 11.1 11.1 0 0 0-5.072-1.187l-32.282.25a11.224 11.224 0 0 0-7.655 3.122l-19.99 19.09-29.318 14.412-.05-.051-.306.235-4.351 3.225-2.799 2.082s-7.341 9.068-13.21 36.266c-.882 4.09-1.503 57.044-1.915 65.731Z" fill="#5790CC"/><path d="M382.517 393.942c-.459.431-.923.858-1.388 1.285a215.149 215.149 0 0 1-13.714 11.567H110.656a211.553 211.553 0 0 1-15.106-12.852h286.967Z" fill="#CCC"/><path d="M288.401 397.025h-94.385l1.997-9.768h90.391l1.997 9.768Z" fill="#2F2E41"/><path d="M373.793 354.869h-24.56a3.685 3.685 0 0 0-1.606.362 3.794 3.794 0 0 0-1.306 1.025 5.406 5.406 0 0 0-1.039-.102c-.765 0-1.524.154-2.231.455a5.813 5.813 0 0 0-1.892 1.299 6.027 6.027 0 0 0-1.264 1.947 6.152 6.152 0 0 0 0 4.592 6.044 6.044 0 0 0 1.264 1.946 5.813 5.813 0 0 0 1.892 1.299 5.642 5.642 0 0 0 4.769-.151l.409 5.181 1.628 20.482c.077.256.181.502.31.735a3.896 3.896 0 0 0 1.406 1.503 3.742 3.742 0 0 0 1.955.553h15.97a3.75 3.75 0 0 0 1.956-.554 3.896 3.896 0 0 0 1.41-1.502c.125-.234.227-.48.304-.735l4.295-33.22a4.062 4.062 0 0 0 .115-1.827 4.017 4.017 0 0 0-.697-1.685 3.867 3.867 0 0 0-1.358-1.179 3.749 3.749 0 0 0-1.73-.424Zm-28.511 11.566a4.103 4.103 0 0 1-2.94-1.256 4.35 4.35 0 0 1-1.217-3.028 4.35 4.35 0 0 1 1.217-3.029 4.104 4.104 0 0 1 2.94-1.257c.075 0 .145.021.219.027a4.045 4.045 0 0 0 .061 2.092l1.758 5.881a4.004 4.004 0 0 1-2.038.57ZM318.32 246.178H162.849a4.975 4.975 0 0 0-3.561 1.522 5.265 5.265 0 0 0-1.478 3.665v107.999a5.266 5.266 0 0 0 1.477 3.666 4.968 4.968 0 0 0 3.562 1.521H318.32a4.968 4.968 0 0 0 3.561-1.521 5.267 5.267 0 0 0 1.478-3.666V251.365a5.27 5.27 0 0 0-1.479-3.665 4.975 4.975 0 0 0-3.56-1.522Z" fill="#3F3D56"/><path d="M258.093 332.713h-36.371c-.515 0-1.008.212-1.371.586a2.036 2.036 0 0 0-.567 1.413v59.146h40.251v-59.146a2.045 2.045 0 0 0-.147-.765 1.96 1.96 0 0 0-1.051-1.082 1.908 1.908 0 0 0-.744-.152Zm-18.063 33.606a4.251 4.251 0 0 1-3.031-1.302 4.509 4.509 0 0 1-1.264-3.12v-6.822a4.491 4.491 0 0 1 1.26-3.123 4.232 4.232 0 0 1 3.035-1.292c1.138 0 2.23.464 3.035 1.292a4.491 4.491 0 0 1 1.26 3.123v6.822a4.509 4.509 0 0 1-1.264 3.12 4.253 4.253 0 0 1-3.031 1.302Z" fill="#2F2E41"/><path d="M219.659 391.966v5.707c.001.296.116.579.319.788.203.208.478.327.765.327h38.334c.287-.001.562-.12.765-.328.203-.209.317-.492.318-.787v-5.707h-40.501Z" fill="#3F3D56"/><path d="M315.014 358.235c1.356 0 2.454-1.132 2.454-2.527 0-1.396-1.098-2.527-2.454-2.527-1.355 0-2.454 1.131-2.454 2.527 0 1.395 1.099 2.527 2.454 2.527ZM182.475 352.043a.845.845 0 0 0-.608.259.901.901 0 0 0-.251.625v4.55a.89.89 0 0 0 .252.623.845.845 0 0 0 .607.259.844.844 0 0 0 .606-.259.896.896 0 0 0 .253-.623v-4.55a.897.897 0 0 0-.067-.338.863.863 0 0 0-.792-.546ZM187.138 352.043a.844.844 0 0 0-.607.259.896.896 0 0 0-.251.625v4.55c0 .235.091.46.251.625a.845.845 0 0 0 1.215 0 .895.895 0 0 0 .252-.625v-4.55a.884.884 0 0 0-.531-.817.841.841 0 0 0-.329-.067ZM191.804 352.043a.845.845 0 0 0-.608.259.884.884 0 0 0-.251.625v4.55a.89.89 0 0 0 .252.623.845.845 0 0 0 .607.259.844.844 0 0 0 .606-.259.89.89 0 0 0 .252-.623v-4.55a.896.896 0 0 0-.529-.817.853.853 0 0 0-.329-.067ZM196.467 352.043a.844.844 0 0 0-.607.259.863.863 0 0 0-.185.287.897.897 0 0 0-.067.338v4.55a.896.896 0 0 0 .253.623.845.845 0 0 0 .607.259.844.844 0 0 0 .606-.259.892.892 0 0 0 .253-.623v-4.55a.901.901 0 0 0-.252-.625.841.841 0 0 0-.608-.259Z" fill="#2F2E41"/><path d="M200.189 394.456c7.171 0 12.985-5.985 12.985-13.366 0-7.382-5.814-13.367-12.985-13.367-7.171 0-12.984 5.985-12.984 13.367 0 7.381 5.813 13.366 12.984 13.366ZM290.899 397.026c7.17 0 12.984-5.985 12.984-13.367 0-7.381-5.814-13.366-12.984-13.366-7.172 0-12.984 5.985-12.984 13.366 0 7.382 5.812 13.367 12.984 13.367Z" fill="#FFB8B8"/><path d="M418.727 250.683c-1.283-2.184-2.803-4.518-5.184-5.23-2.757-.826-5.59.815-7.993 2.433a233.64 233.64 0 0 0-20.727 15.721l.007.085c5.156-.366 9.435 13.746 14.591 13.38 3.724-.264 8.454-15.043 11.746-16.857 1.249-.689 2.467-1.607 3.882-1.671 1.758-.08 3.292 1.184 4.497 2.504 7.128 7.815 9.191 19.763 17.188 26.629a264.303 264.303 0 0 0-18.007-36.994Z" fill="#56B84E"/><path d="M432.777 269.754a357.59 357.59 0 0 0 12.06 20.771v.005c-.025.238-.061.478-.095.716a217.036 217.036 0 0 1-1.526-2.44 355.543 355.543 0 0 1-15.649-28.101 377.498 377.498 0 0 1-3.517-7.24c-.328-.696-.645-1.392-.962-2.093-.745-1.642-1.48-3.294-2.266-4.914-.895-1.849-1.988-3.781-3.633-5.023a4.88 4.88 0 0 0-2.583-1.028 7.053 7.053 0 0 0-3.74 1.107 120.27 120.27 0 0 0-23.671 16.844 125.996 125.996 0 0 0-19.228 22.028c-.171.249-.574.01-.403-.245.68-.986 1.364-1.957 2.069-2.924 8.734-11.984 19.442-22.29 31.635-30.448a120.525 120.525 0 0 1 6.267-3.92 86.202 86.202 0 0 1 3.247-1.829 7.741 7.741 0 0 1 3.442-1.102c4.178-.067 6.342 4.816 7.827 8.098.463 1.034.935 2.066 1.415 3.097a357.641 357.641 0 0 0 5.632 11.592 334.399 334.399 0 0 0 3.679 7.049ZM386.814 255.996c-.24-.277-.48-.553-.722-.829-1.911-2.175-3.961-4.326-6.586-5.573a9.339 9.339 0 0 0-4.002-.956c-1.43.041-2.841.357-4.156.934-.627.257-1.238.549-1.842.86-.687.358-1.364.737-2.037 1.121a89.67 89.67 0 0 0-10.86 7.286 88.506 88.506 0 0 0-3.498 2.886 92.053 92.053 0 0 0-3.119 2.84c-.218.208-.543-.128-.324-.335a83.29 83.29 0 0 1 3.148-2.865 90.227 90.227 0 0 1 11.766-8.649 88.361 88.361 0 0 1 3.835-2.232c.391-.215.786-.424 1.187-.624a18.611 18.611 0 0 1 2.821-1.182 9.754 9.754 0 0 1 4.262-.431c1.385.208 2.72.683 3.933 1.4 2.577 1.483 4.574 3.775 6.519 6.012.197.228-.126.564-.325.337Z" fill="#3F3D56"/><path d="M367.96 266.463a2.901 2.901 0 0 1-1.84-.542c-1.427-1.112-1.389-3.783.113-8.166a9.281 9.281 0 0 1 1.884-3.198 8.976 8.976 0 0 1 2.963-2.165 8.09 8.09 0 0 1 7.228.225 19.651 19.651 0 0 1 3.418 2.496 22.728 22.728 0 0 0 2.846 2.164l.334.202-.316.23c-8.09 5.863-13.575 8.754-16.63 8.754Z" fill="#56B84E"/><path d="M399.067 231.574a11.29 11.29 0 0 1-7.292-2.69 11.9 11.9 0 0 1-3.977-6.844 11.382 11.382 0 0 0-5.864 3.251 11.936 11.936 0 0 0-3.126 6.056 12.145 12.145 0 0 0 .665 6.824 11.768 11.768 0 0 0 4.232 5.296 11.265 11.265 0 0 0 6.377 1.986 11.254 11.254 0 0 0 6.375-1.991 11.755 11.755 0 0 0 4.229-5.298 12.145 12.145 0 0 0 .661-6.824c-.75.155-1.514.234-2.28.234Z" fill="#FFD68D"/><path d="m151.745 167.634-42.267 22.918.691 1.348 42.266-22.917-.69-1.349Z" fill="#3F3D56"/><path d="M152.144 170.209c1.104 0 1.997-.919 1.997-2.055 0-1.136-.893-2.057-1.997-2.057-1.103 0-1.998.921-1.998 2.057s.895 2.055 1.998 2.055Z" fill="#3F3D56"/><path d="M124.191 129.65v1.045a5 5 0 0 0-1.02-.103h-5.223v11.545a6.546 6.546 0 0 1-1.836 4.558 6.183 6.183 0 0 1-4.426 1.89h-7.721v1.777c0 .714.137 1.419.404 2.077H103.3a6.499 6.499 0 0 1-.334-2.077v-1.777h-4.245v-1.029h4.245V136.01a6.545 6.545 0 0 1 1.835-4.557 6.179 6.179 0 0 1 4.427-1.89h7.721v-1.799h.999v1.799h5.223c.341 0 .683.029 1.02.087Z" fill="#56B84E"/><path d="M111.686 121.338H97.742a6.18 6.18 0 0 0-4.427 1.889 6.55 6.55 0 0 0-1.835 4.558v14.352a6.55 6.55 0 0 0 1.835 4.558 6.177 6.177 0 0 0 4.428 1.89h13.943a6.175 6.175 0 0 0 4.426-1.89 6.546 6.546 0 0 0 1.836-4.558v-14.373a6.553 6.553 0 0 0-1.842-4.545 6.177 6.177 0 0 0-4.42-1.881Zm5.263 20.799a5.517 5.517 0 0 1-1.544 3.83 5.19 5.19 0 0 1-3.719 1.589H97.742a5.192 5.192 0 0 1-3.72-1.589 5.507 5.507 0 0 1-1.543-3.83v-14.352a5.503 5.503 0 0 1 1.543-3.829 5.193 5.193 0 0 1 3.72-1.59h13.944a5.196 5.196 0 0 1 3.713 1.581 5.506 5.506 0 0 1 1.55 3.817v14.373Z" fill="#3F3D56"/><path d="M102.966 147.557v1.028h.999v-1.028h-.999Zm0 0v1.028h.999v-1.028h-.999Zm21.225-17.906a6.011 6.011 0 0 0-1.02-.087h-13.943c-1.66 0-3.252.681-4.427 1.889a6.545 6.545 0 0 0-1.835 4.557v14.353a6.508 6.508 0 0 0 .334 2.077 6.438 6.438 0 0 0 2.283 3.164 6.139 6.139 0 0 0 3.645 1.206h13.943a6.184 6.184 0 0 0 4.427-1.889 6.547 6.547 0 0 0 1.835-4.558V136.01a6.56 6.56 0 0 0-1.487-4.17 6.227 6.227 0 0 0-3.755-2.189Zm4.245 20.712a5.514 5.514 0 0 1-1.545 3.83 5.197 5.197 0 0 1-3.72 1.589h-13.943a5.196 5.196 0 0 1-3.719-1.589 5.501 5.501 0 0 1-1.544-3.83V136.01a5.499 5.499 0 0 1 1.543-3.829 5.196 5.196 0 0 1 3.72-1.589h13.943c1.397 0 2.735.571 3.722 1.587a5.505 5.505 0 0 1 1.543 3.831v14.353Zm-25.47-2.806v1.028h.999v-1.028h-.999Z" fill="#3F3D56"/><path d="m418.882 180.044-4.884-7.531-3.57-5.506a2.01 2.01 0 0 0-.845-.733 1.94 1.94 0 0 0-2.099.314c-.285.251-.496.58-.608.949l-1.502 4.976-3.027 9.999a2.094 2.094 0 0 0 .683 2.226 1.946 1.946 0 0 0 2.264.124l1.074-.684a1.454 1.454 0 0 1 1.449-.066c.226.117.421.291.564.507.143.215.231.466.254.726l.984 11.053c.045.508.273.98.64 1.324.364.344.842.535 1.338.537.059 0 .119-.006.184-.011l1.509-.138a1.984 1.984 0 0 0 1.346-.729 2.07 2.07 0 0 0 .451-1.497l-1.014-11.412c-.024-.269.021-.54.13-.784.11-.244.28-.455.494-.609a1.452 1.452 0 0 1 1.483-.14l.22.103a1.94 1.94 0 0 0 1.259.14 1.977 1.977 0 0 0 1.085-.672 2.095 2.095 0 0 0 .138-2.466Z" fill="#CCC"/><g opacity=".7"><path d="m33.357 204.974 31.722 63.908-53.314-63.908h21.592ZM96.806 204.974l-31.722 63.908 53.313-63.908H96.806Z" fill="#EA6C00"/><path d="M33.357 204.974h63.437l-31.715 63.908-31.722-63.908Z" fill="#FDAD00"/><path d="m65.079 169.557-30.052 3.27-1.68 32.147 31.732-35.417Z" fill="#FDD231"/><path d="m65.079 169.557 30.046 3.27 1.68 32.147-31.727-35.417Z" fill="#FDD231"/><path d="m118.397 204.974-23.261-32.147 1.68 32.147h21.581ZM11.765 204.974l23.262-32.147-1.681 32.147h-21.58Z" fill="#FDAD00"/><path d="m65.079 169.557-31.722 35.417h63.437l-31.715-35.417Z" fill="#FEEEB7"/></g><g opacity=".7"><path d="M347.628 67.806h92.817v92.934h-92.817V67.806Z" fill="#2E001E"/><path d="M343.432 63.44v101.642h101.254V63.44H343.432Zm4.219 4.348h92.816v92.952h-92.839l.023-92.952Z" fill="#FF2BC2"/><path d="M416.965 106.152a5.653 5.653 0 0 0-2.448-.439c-5.312 0-8.857 4.217-8.857 11.206 0 7.994 3.63 11.206 8.352 11.206a7.67 7.67 0 0 0 2.914-.478v-21.495h.039Zm-18.914 11.12c0-10.122 6.325-18.03 16.706-18.03a17.03 17.03 0 0 1 2.191.093V88.043c0-.117.045-.228.125-.31a.417.417 0 0 1 .301-.129h6.79c.336 0 .421.133.421.352v39.691a31.519 31.519 0 0 0 .212 4.256c0 .306 0 .352-.252.478a24.545 24.545 0 0 1-10.801 2.52c-9.155 0-15.688-5.819-15.688-17.629h-.005Zm-14.387-7.037 11.827 23.565c.213.346.084.692-.252.692h-7.34a.804.804 0 0 1-.543-.124.842.842 0 0 1-.342-.452 1578.346 1578.346 0 0 1-8.269-17.85h-.084c-2.533 5.819-5.317 12.163-8.018 17.879a.83.83 0 0 1-.311.357.797.797 0 0 1-.45.121h-7.003c-.421 0-.46-.351-.252-.611l11.557-22.885-11.176-22.688a.391.391 0 0 1 .08-.599.368.368 0 0 1 .216-.053h7.256c.42 0 .633.087.756.479 2.661 5.767 5.362 11.465 7.893 17.301h.085c2.442-5.732 5.143-11.534 7.72-17.197.207-.352.336-.577.757-.577h6.796c.335 0 .458.26.252.652l-11.139 22.019-.016-.029Z" fill="#FF2BC2"/></g></g></svg>