<svg xmlns="http://www.w3.org/2000/svg" width="1280" height="345"><path d="M1245.5 231.89c-15.533 7.169-15.085 28.954.732 35.562 9.584 4.005 20.441-.338 24.878-9.952 7.437-16.115-9.495-33.047-25.61-25.61m-.351 2.751c-10.588 5.392-11.541 21.252-1.713 28.525 4.649 3.441 13.942 3.779 18.472.672 5.273-3.617 7.369-7.132 7.872-13.204.513-6.175-1.852-11.607-6.573-15.101-3.672-2.717-13.519-3.203-18.058-.892m.851 14.932c0 11.435.158 12.544 1.75 12.241 1.353-.257 1.819-1.523 2.052-5.573.394-6.834 2.038-6.756 5.479.259 1.495 3.05 3.37 5.5 4.208 5.5 2.03 0 1.909-1.127-.694-6.485l-2.205-4.539 2.205-1.545c1.63-1.142 2.205-2.557 2.205-5.431 0-5.097-2.643-7-9.723-7H1246v12.573m4-5.573c0 3.74.187 4 2.878 4 1.582 0 3.419-.653 4.082-1.452 1.656-1.995.44-5.207-2.243-5.926-4.2-1.126-4.717-.756-4.717 3.378" fill="#24343c" fill-rule="evenodd"/><path d="M80 7.935c0 5.473-2.054 8.373-14.864 20.979-18.661 18.365-31.983 37.172-41.137 58.073-15.176 34.65-20.684 78.21-14.022 110.899 7.412 36.373 29.427 72.252 59.59 97.117l7.066 5.826 1.723 15.835c2.763 25.405 2.23 23.496 6.463 23.141l3.625-.305 1.264-9.5c.694-5.225 2.216-14.554 3.382-20.731l2.12-11.231 8.461-7.183c32.22-27.354 52.137-69.678 54.021-114.791 1.23-29.452-5.312-58.912-19.666-88.564-9.603-19.837-18.082-31.714-37.243-52.167-7.922-8.456-10.346-11.856-14.404-20.204-2.683-5.521-5.217-10.058-5.629-10.083-.412-.025-.75 1.275-.75 2.889m837.118 112.321c-1.165 2.406-2.118 4.643-2.118 4.969 0 .327 3.263 1.139 7.25 1.806 10.457 1.747 14.315 3.515 15.908 7.291 1.069 2.531 1.339 14.482 1.329 58.678-.012 50.575-.166 55.781-1.733 58.667-1.734 3.194-4.494 4.537-11.851 5.765-3.808.637-5.903 3.464-5.903 7.968 0 2.151.515 2.35 7.651 2.953 11.653.985 64.871.712 73.253-.376 12.224-1.586 20.067-3.889 30.596-8.981 22.222-10.748 36.187-28.116 40.998-50.988 2.222-10.562 1.984-29.775-.491-39.598-3.261-12.944-8.254-21.677-17.994-31.469-9.429-9.481-17.304-14.219-30.029-18.068-7.249-2.193-9.011-2.276-56.116-2.629l-48.632-.364-2.118 4.376m170.698-.756c-3.359 5.445-2.303 6.771 6.476 8.124 8.574 1.321 12.385 3.232 13.235 6.639.307 1.23.426 27.887.265 59.237-.224 43.736-.587 57.516-1.559 59.216-1.346 2.355-9.365 5.284-14.466 5.284-2.329 0-3.142.653-4.318 3.468-3.199 7.656-5.22 7.133 30.301 7.846 43.517.874 54.626-.446 70.881-8.418 10.708-5.253 19.367-13.115 23.346-21.198 7.249-14.725 5.813-31.475-3.664-42.738-3.7-4.397-12.591-10.05-19.502-12.399l-5.594-1.901 5.697-3.683c11.508-7.438 16.642-17.183 15.801-29.995-.608-9.255-2.322-13.515-7.849-19.511-4.594-4.985-10.076-8.187-18.866-11.021-4.882-1.575-10.153-1.784-46.917-1.862l-41.416-.088-1.851 3m-114.953 8.485c-8.576 1.076-7.945-3.887-7.637 60.085.312 64.737-.363 60.035 9.326 64.93 4.6 2.324 5.967 2.5 19.448 2.5h14.5l7.881-3.763c14.414-6.882 23.972-19.331 28.711-37.395 2.69-10.251 2.936-29.676.505-39.814-4.784-19.956-17.821-35.185-35.965-42.014-9.99-3.761-26.591-5.805-36.769-4.529m164.637.739c-4.453 1.094-4.5 1.374-4.5 26.853v24.332l3.653.686c5.668 1.063 26.458-.197 30.395-1.842 8.096-3.382 13.845-14.949 12.497-25.14-1.379-10.418-6.12-17.097-15.076-21.235-7.065-3.264-20.92-5.141-26.969-3.654m-540.324 38.385c-5.942 1.116-14.136 5.009-21.767 10.344l-6.409 4.48v-6.998c0-4.993-.391-7.148-1.366-7.522-.752-.288-4.239.444-7.75 1.628s-11.521 3.219-17.8 4.523c-6.28 1.303-11.83 2.782-12.335 3.287-1.315 1.315-.517 5.301 1.251 6.247.825.441 4.335 2.021 7.8 3.511 3.465 1.49 6.727 3.508 7.25 4.484 1.15 2.15 1.17 52.339.024 59.323-.954 5.812-2.667 7.328-9.264 8.204-5.25.696-6.303 2.192-5.638 8.009l.328 2.871 26 .077c17.531.052 26.239-.274 26.735-1 .404-.592.741-2.99.75-5.327.015-4.237.004-4.25-3.735-4.306-6.655-.101-10.532-2.042-11.486-5.752-.468-1.819-.719-16.133-.558-31.808l.294-28.501 2.5-1.998c6.729-5.379 18.154-8.001 25.839-5.93 5.549 1.496 12.264 8.081 13.931 13.661.836 2.798 1.23 12.437 1.23 30.095 0 29.751.258 28.879-8.863 29.959l-5.137.609v10.494l25.75-.007c18.029-.005 25.97-.345 26.485-1.136.404-.622.741-2.981.75-5.244l.015-4.114-4.48-.614c-2.463-.338-5.994-1.247-7.844-2.02-3.245-1.356-3.388-1.651-4.013-8.272-.357-3.776-.652-16.406-.656-28.067-.007-21.819-.809-28.696-4.189-35.935-6.053-12.964-19.569-19.896-33.642-17.255m-361.944 2.473c-3.998 1.311-11.644 3.278-16.991 4.371-14.328 2.927-15.546 5.819-4.234 10.049 3.269 1.223 7.08 3.276 8.469 4.563l2.524 2.34-.06 27.297c-.081 37.48-.397 38.827-9.44 40.354-6.514 1.101-7.654 2.078-7.306 6.259l.306 3.685 25.75.058 25.75.058v-4.241c0-4.562-.135-4.672-7.268-5.936-2.275-.404-4.552-1.666-5.75-3.188-1.876-2.385-1.982-4.123-1.982-32.347 0-34.123-.72-31.448 9.855-36.621 9.99-4.888 20.848-4.353 27.146 1.337 6.944 6.273 7.499 9.195 7.499 39.476 0 21.037-.286 26.941-1.369 28.246-1.27 1.53-4.603 2.74-11.381 4.132-2.507.514-2.75.96-2.75 5.045V269h25.393c27.825 0 26.607.278 26.607-6.063 0-2.346-.525-3.017-2.75-3.518-8.358-1.883-10.391-2.705-11.726-4.743-2.055-3.135-2.361-62.498-.329-63.873 4.064-2.751 11.408-5.954 15.821-6.9 9.975-2.139 19.375 2.312 24.293 11.502 2.07 3.868 2.209 5.566 2.512 30.647.369 30.522.458 30.174-8.363 32.405-4.928 1.247-4.96 1.281-5.253 5.649l-.294 4.394 25.294-.066 25.295-.067v-8.709l-5.944-1.35c-9.909-2.25-9.32-.199-9.792-34.133-.379-27.303-.584-30.141-2.563-35.508-5.555-15.067-16.272-22.432-31.179-21.427-8.4.566-15.642 3.429-26.108 10.323l-8.414 5.542-1.454-2.303c-.8-1.266-3.341-4.163-5.648-6.438-10.792-10.641-27.264-9.584-46.131 2.959-3.87 2.572-7.375 4.677-7.788 4.677-.414 0-.534-2.812-.266-6.25.774-9.941 1.032-9.782-9.981-6.168m213.984-.563c-32.258 8.451-47.166 36.832-36.688 69.844 6.89 21.708 24.512 33.171 48.972 31.858 15.416-.828 29.45-7.188 38.496-17.445 13.65-15.477 16.757-41.062 7.399-60.933-3.374-7.165-13.06-17.089-19.681-20.164-11.747-5.457-25.443-6.581-38.498-3.16m252.053-.157c-15.966 4.728-26.082 12.716-30.31 23.936-2.874 7.627-2.448 21.216.9 28.702 2.857 6.386 8.937 12.594 15.216 15.535 2.709 1.269 4.922 2.567 4.918 2.886-.007.608-2.671 2.445-12.356 8.521-5.57 3.494-5.831 3.837-5.226 6.864.866 4.33 5.369 9.692 10.587 12.606 4.206 2.349 4.266 2.454 2.311 4-1.104.874-5.491 4.288-9.747 7.588-9.54 7.396-12.562 12.12-12.562 19.642 0 10.769 7.187 20.238 19.877 26.186 6.075 2.848 7.66 3.138 19.163 3.5 14.234.449 20.891-.805 32.389-6.099C755.395 313.997 767 298.565 767 282.077c0-5.554-.528-7.859-2.793-12.196-5.264-10.075-12.405-13.02-36.207-14.93-24.509-1.967-29-3.288-29-8.533 0-3.584 4.122-6.052 11.346-6.792 16.124-1.652 30.424-10.415 36.531-22.385 3.714-7.28 4.978-22.243 2.438-28.862-.388-1.011.598-1.177 4.357-.731 9.932 1.176 15.328-3.793 15.328-14.116 0-5.12-.799-5.48-5.102-2.298-2.327 1.72-4.728 2.32-10.443 2.608-6.31.319-8.885-.11-17.189-2.859-12.532-4.15-25.493-4.935-34.997-2.121m123.847.182c-13.894 3.639-23.248 9.506-30.593 19.189-6.698 8.831-9.032 16.826-8.98 30.767.062 16.871 3.705 27.498 12.948 37.779 10.602 11.792 31.502 17.199 49.049 12.689 14.052-3.611 26.114-11.578 32.43-21.421 12.99-20.244 10.995-50.41-4.424-66.895-11.546-12.343-31.363-17.101-50.43-12.108m-124.695 9.852c-2.243 1.019-5.063 3.105-6.267 4.636-3.366 4.278-5.501 12.889-4.811 19.399C691.053 219.067 699.69 229 712.01 229c11.801 0 18.152-8.381 18.188-24 .031-14.103-6.283-24.273-16.699-26.896-5.992-1.509-8.322-1.368-13.078.792m-251.284.473c-5.489 1.987-11.192 7.509-13.93 13.491-5.1 11.139-4.038 32.789 2.252 45.914 5.819 12.143 13.058 18.28 23.931 20.29 11.898 2.2 22.446-4.345 26.138-16.219 4.135-13.297 2.6-33.006-3.545-45.517-7.005-14.261-22.705-22.353-34.846-17.959m376.511-.401c-11.506 3.684-17.558 14.891-17.615 32.622-.083 25.696 10.773 43.602 28.777 47.463 8.056 1.727 14.369-.134 20.173-5.949 6.56-6.572 8.484-13.073 8.466-28.604-.02-17.257-3.285-27.134-12.078-36.534-6.993-7.477-19.646-11.583-27.723-8.998m310.102 13.77-2.75.395.016 25.683c.016 24.738.1 25.831 2.259 29.684 3.529 6.295 7.977 7.965 21.225 7.968 13.202.002 19.054-2.091 25.553-9.142 5.261-5.707 7-9.986 7.673-18.881 1.305-17.266-8.234-29.467-26.491-33.881-5.883-1.422-22.573-2.531-27.485-1.826m-435.59 81.404c-5.135 1.479-14.844 11.493-15.711 16.204-1.809 9.835 6.098 19.94 18.566 23.727 10.719 3.256 23.308 2.52 32.258-1.887 17.938-8.83 17.942-29.722.008-35.561-9.571-3.117-28.317-4.442-35.121-2.483" fill="#95a2aa" fill-rule="evenodd"/></svg>