<svg xmlns="http://www.w3.org/2000/svg" width="1280" height="344"><path d="M1242 125.5c0 1 1 1.5 3 1.5h3v9c0 8.333.148 9 2 9s2-.667 2-9v-9h3.5c2.444 0 3.5-.452 3.5-1.5 0-1.216-1.611-1.5-8.5-1.5s-8.5.284-8.5 1.5m18 9c0 9.748.14 10.5 1.952 10.5 1.697 0 1.992-.819 2.25-6.25l.298-6.25 1.969 5.865c1.802 5.369 3.751 7.749 5.177 6.322.308-.307 1.615-3.4 2.905-6.873l2.345-6.314.052 6.75c.041 5.31.372 6.75 1.552 6.75 1.239 0 1.5-1.841 1.5-10.57 0-10.277-.06-10.56-2.17-10.25-1.742.257-2.698 1.902-4.835 8.32l-2.664 8-2.748-8.25c-2.431-7.301-3.025-8.25-5.165-8.25-2.404 0-2.418.062-2.418 10.5" fill="#84cc2c" fill-rule="evenodd"/><path d="M642.129 1.344c-.79.953-1.19 21.109-1.372 69.236-.242 63.943-.36 67.913-2.02 68.232-.97.187-7.045-2.715-13.5-6.449-9.156-5.295-12.617-6.789-15.737-6.789-3.411-.001-10.6 3.813-48.824 25.905-33.938 19.614-45.17 26.575-46.25 28.664-1.182 2.285-1.426 11.758-1.426 55.292v52.533l2.75 3.008c1.513 1.654 22.313 14.261 46.223 28.016C599.321 340.476 606.021 344 609.525 344c3.504 0 10.196-3.521 47.527-25.003 23.896-13.752 44.691-26.364 46.209-28.028l2.762-3.026-.262-127.367c-.25-122.148-.337-127.45-2.104-129.403-1.014-1.12-13.622-8.592-28.017-16.605C649.338-.071 644.793-1.865 642.129 1.344M1113.5 123.68c-4.651 2.48-68.013 38.988-77.028 44.382-13.383 8.008-12.475 3.338-12.456 64.074l.017 51.364 2.262 4c2.381 4.211 13.026 11.336 28.475 19.059 16.171 8.084 32.154 5.212 38.922-6.995l2.808-5.064v-103h-15l-.5 48.5c-.355 34.439-.84 49.091-1.673 50.54-1.871 3.254-5.723 4.788-10.635 4.234-3.158-.355-7.984-2.62-16.811-7.886L1039.5 279.5l-.26-47.231-.26-47.232 3.76-2.357c2.068-1.296 20.757-12.134 41.53-24.083l37.77-21.727 37.73 21.725c20.752 11.949 39.418 22.784 41.48 24.078l3.75 2.352-.015 46.738c-.009 25.705-.346 47.215-.75 47.8-.753 1.089-79.742 46.7-81.794 47.231-.625.162-6.083-2.666-12.127-6.284l-10.991-6.578-6.411 3.033c-3.527 1.668-7.007 3.034-7.735 3.034-.728.001-1.174.777-.992 1.725.407 2.112 28.151 18.751 33.804 20.273 2.854.769 5.155.772 7.977.012 3.32-.894 74.443-40.965 86.264-48.601 2.052-1.326 4.639-4.192 5.75-6.369 1.948-3.818 2.02-5.767 2.02-54.683 0-60.578.813-56.342-12.33-64.208-11.083-6.633-73.376-42.471-77.37-44.512-4.065-2.078-12.865-2.055-16.8.044m-1066 24.933c-24.2 13.993-44.788 26.38-45.75 27.526C.12 178.079 0 183.032 0 248.576c0 68.533.05 70.38 1.934 71.389C2.998 320.534 4.64 321 5.583 321c2.41 0 52.27-28.684 55.917-32.169l3-2.866.5-35.573c.582-41.434-1.571-35.452 16.492-45.824C88.77 200.39 94.048 198 96 198s7.23 2.39 14.508 6.568c18.063 10.372 15.91 4.39 16.492 45.824l.5 35.573 3 2.866c3.647 3.485 53.507 32.169 55.917 32.169.943 0 2.585-.466 3.649-1.035 1.884-1.009 1.934-2.856 1.934-71.389 0-65.545-.12-70.497-1.75-72.436-1.45-1.724-75.272-44.968-87.46-51.233-7.549-3.88-7.686-3.822-55.29 23.706m257.007.813c-26.443 15.234-44.794 26.417-46 28.033-1.951 2.613-2.007 4.187-2.007 56.197v53.508l3.017 2.668c1.66 1.467 22.57 13.908 46.469 27.645 34.539 19.854 44.175 24.973 46.982 24.958 2.771-.016 13.008-5.473 47.532-25.336 24.2-13.924 45.012-26.417 46.25-27.763l2.25-2.448V179.112l-2.25-2.467c-1.238-1.357-21.985-13.757-46.106-27.556-38.274-21.895-44.384-25.084-48-25.049-3.558.035-10.364 3.624-48.137 25.386m534.885-12.28c-57.689 33.13-66.032 38.082-68.142 40.445l-2.25 2.521v106.776l2.25 2.568c1.237 1.413 22.038 13.813 46.224 27.556 34.772 19.759 44.712 24.984 47.5 24.967 4.617-.028 57.917-29.453 59.089-32.621.438-1.182.267-3.043-.399-4.342-.754-1.473-16.487-11.052-44.664-27.196-23.925-13.707-44.062-25.66-44.75-26.562-.885-1.161-1.25-6.519-1.25-18.327 0-12.129.341-16.969 1.25-17.723 2.516-2.089 29.24-17.208 30.415-17.208 1.366 0 26.881 14.5 29.585 16.813 1.514 1.295 1.75 3.41 1.75 15.687 0 12.477.221 14.39 1.829 15.845 1.006.91 2.695 1.655 3.755 1.655 2.775 0 53.391-29.536 56.666-33.067l2.75-2.965V196.04c0-15.089-.119-16.064-2.25-18.503-1.237-1.417-22.05-14.039-46.25-28.051-31.691-18.348-44.87-25.476-47.108-25.48-2.166-.004-10.051 3.981-26 13.14M1132 189.057c-8.206 1.433-17.585 6.387-20.989 11.086-5.221 7.208-5.994 17.837-1.893 26.023 3.783 7.549 11.639 10.761 33.82 13.825 25.082 3.466 29.693 5.971 26.819 14.571-2.027 6.064-6.643 7.86-21.29 8.284-6.944.201-13.798-.127-16.205-.775-5.769-1.554-9.991-5.398-11.419-10.395-1.74-6.09-2.476-6.676-8.384-6.676-7.601 0-8.459.531-8.459 5.241 0 6.028 1.923 11.309 5.745 15.774 7.91 9.241 18.566 12.389 39.755 11.744 16.111-.49 22.952-2.462 29.703-8.562 5.975-5.397 8.17-10.4 8.209-18.708.041-8.883-2.313-13.81-8.655-18.113-5.318-3.608-12.853-5.601-31.757-8.401-13.656-2.023-19.475-3.422-21.75-5.228-1.483-1.177-1.655-7.122-.279-9.692 1.862-3.48 8.764-5.368 19.529-5.341 15.095.036 20.287 2.821 23.453 12.578l1.23 3.792 7.158-.292 7.159-.292-.101-5.5c-.196-10.715-7.467-19.385-19.357-23.082-7.621-2.369-23.763-3.307-32.042-1.861m-538.756 18.722-15.257 8.721.257 18.357.256 18.357 15.384 8.881 15.384 8.881 14.787-8.541c8.133-4.697 15.284-9.138 15.89-9.869.735-.885 1.012-7.088.829-18.573l-.274-17.245-15-8.821c-8.25-4.851-15.45-8.831-16-8.845-.55-.013-7.865 3.901-16.256 8.697m261.474 9.319-8.782 5.097.282 11.042.282 11.041 8.862 5.038c10.135 5.761 9.456 5.799 21.431-1.195l7.207-4.209v-21.796l-8.594-5.058c-4.727-2.782-9.339-5.058-10.25-5.057-.911 0-5.608 2.294-10.438 5.097" fill="#8c9ba4" fill-rule="evenodd"/></svg>