<svg xmlns="http://www.w3.org/2000/svg" width="5000" height="1679"><path d="M1297 1.542c-63.157 8.692-132.768 38.574-208.534 89.519-43.323 29.13-93.578 69.89-132.081 107.124-5.014 4.848-9.442 8.815-9.84 8.815-.398 0-6.421-5.35-13.385-11.89C868.18 134.085 794.793 81.508 728 48.127c-45.958-22.968-84.589-36.371-124.203-43.092-65.688-11.144-121.49 2.443-160.098 38.982-40.941 38.746-65.254 98.487-74.267 182.483-2.181 20.335-3.018 77.728-1.505 103.263 3.418 57.7 12.751 119.017 27.395 179.987 2.474 10.301 3.074 14.25 2.165 14.25-2.792 0-56.178 16.996-79.487 25.306-53.072 18.921-107.445 44.295-151 70.467-47.975 28.829-89.91 63.643-117.164 97.271-20.534 25.337-36.928 56.252-43.315 81.685-7.611 30.305-6.401 60.255 3.665 90.7 4.238 12.819 16.294 37.121 24.839 50.071 49.749 75.393 151.439 144.97 283.975 194.298 21.872 8.14 55.593 19.375 70.027 23.331 4.518 1.238 7.973 2.724 7.973 3.428 0 .684-1.602 7.926-3.561 16.093-43.109 179.786-34.943 337.686 21.944 424.296 41.763 63.584 106.489 88.246 193.096 73.574 86.055-14.578 186.12-67.412 284.967-150.463 18.548-15.584 34.292-29.672 46.159-41.304l9.104-8.924 11.396 10.715c69.938 65.767 137.534 114.798 205.395 148.986 74.934 37.751 141.988 52.197 197.581 42.568 82.33-14.261 136.727-83.893 155.906-199.567 14.24-85.889 8.731-186.183-16.424-299.031-1.961-8.8-3.936-17.35-4.387-19l-.821-3 33.572-11.123c36.999-12.259 64.196-22.573 94.573-35.868 148.116-64.824 243.166-152.26 260.908-240.009 3.693-18.266 3.697-42.728.011-60.87-4.375-21.526-15.67-47.379-30.068-68.822-46.654-69.482-140.242-133.288-267.351-182.275-19.654-7.575-62.78-22.207-82.543-28.006l-13.044-3.828 3.309-14.099c12.992-55.373 21.754-113.893 25.317-169.1 1.339-20.755 1.324-73.953-.028-92.5C1512.529 118.836 1465.452 34.391 1388 8.614c-19.663-6.543-28.6-7.853-56-8.204-17.416-.223-27.536.105-35 1.132m10 81.076c-81.016 10.893-188.788 74.934-295.477 175.578l-7.905 7.458 11.82 12.923c42.302 46.25 94.772 111.708 135.896 169.535l11.814 16.613 8.176.66c58.992 4.765 155.5 19.705 224.521 34.757 10.09 2.2 18.479 3.856 18.643 3.679.488-.529 9.181-40.474 11.386-52.321 17.334-93.152 20.554-174.303 9.542-240.5-11.406-68.566-37.218-112.707-73.141-125.079-13.955-4.807-34.82-6.054-55.275-3.303m-768.151 1.946c-21.501 3.891-36.776 13.247-49.761 30.48-41.738 55.39-52.092 169.971-28.001 309.853 3.244 18.837 9.241 47.763 13.704 66.103 2.641 10.851 2.938 11.495 5.254 11.406 1.35-.052 13.48-2.386 26.955-5.186 66.51-13.82 155.206-27.177 211-31.775 4.675-.386 9.242-1.085 10.149-1.554.906-.469 3.801-3.899 6.432-7.622 40.745-57.649 99.682-130.793 144.141-178.887 5.653-6.114 10.278-11.363 10.278-11.664 0-1.72-47.835-43.8-68.49-60.251C732.902 135.696 649.931 93.419 583 84.447c-13.124-1.76-34.088-1.704-44.151.117m400.478 247.28c-19.499 21.32-46.348 52.63-67.447 78.656-16.426 20.262-36.07 45.643-35.65 46.064.209.209 11.606-.091 25.325-.666 32.502-1.362 137.006-1.346 168.863.026 13.705.591 25.107.884 25.339.652 1.165-1.164-45.61-59.815-74.628-93.576-10.011-11.648-34.25-39.002-34.557-38.999-.04 0-3.3 3.529-7.245 7.843M2179 832.465V1229h99V913.988l79.232.256 79.231.256 10.519 16.56c5.785 9.108 20.839 32.733 33.455 52.5 12.615 19.767 31.111 48.765 41.103 64.44a77043.097 77043.097 0 0 0 38.933 61c11.422 17.875 28.795 45.1 38.606 60.5 9.811 15.4 22.288 34.975 27.725 43.5l9.888 15.5 58.654.258c32.453.143 58.654-.128 58.654-.605 0-.475-12.713-20.053-28.25-43.505a90400.618 90400.618 0 0 1-51.21-77.395 101600.321 101600.321 0 0 0-57.412-86.753c-67.296-101.575-75.155-113.647-74.586-114.568.317-.513 2.07-.932 3.896-.932 4.779 0 23.378-3.382 35.274-6.413 31.7-8.079 63.911-24.471 87.937-44.753 41.26-34.829 65.881-80.509 74.832-138.834 2.523-16.442 3.072-51.369 1.099-69.875-8.616-80.796-49.831-143.441-117.852-179.125-26.479-13.892-53.892-22.349-89.728-27.681-10.439-1.553-27.523-1.742-185.25-2.05l-173.75-.338v396.534M4764 576.5V655h-95v79h94.953l.325 199.75.325 199.75 2.156 11.108c5.48 28.232 14.972 47.985 31.042 64.594 20.579 21.269 49.149 32.124 88.199 33.51 37.769 1.34 69.217-6.067 94.773-22.323 6.308-4.012 18.075-13.474 18.168-14.608.112-1.368-25.992-67.781-26.642-67.781-.263 0-3.018 2.264-6.123 5.031-7.392 6.588-23.132 14.335-34.605 17.031-10.116 2.377-25.122 2.82-33.07.977-20.646-4.788-34.637-21.156-41.137-48.125-1.677-6.957-1.806-18.863-2.098-193.164l-.312-185.75H4971v-79h-116V498h-91v78.5m-2486 99.559v151.058l112.25-.387c120.346-.414 119.494-.38 140.615-5.637 50.379-12.539 88.88-47.303 104.681-94.523 5.419-16.196 7.747-31.25 7.82-50.57.155-40.821-11.981-74.592-36.432-101.382-25.134-27.539-56.575-42.855-98.896-48.177-9.355-1.176-31.554-1.441-120.75-1.441H2278v151.059M889 536.585c-30.848 1.037-67.34 2.714-86.423 3.971-12.057.794-23.413 1.444-25.236 1.444-3.185 0-3.787.708-15.457 18.173-38.032 56.922-77.122 121.97-111.366 185.327-13.259 24.531-44.856 86.683-46.548 91.561-1.22 3.518-1.019 3.989 16.867 39.5 43.214 85.795 86.951 160.743 141.334 242.189 11.603 17.377 13.127 19.25 15.661 19.25 1.545 0 15.376.666 30.738 1.479 65.208 3.453 142.499 4.392 205.93 2.502 32.883-.979 81.227-3.287 96.376-4.6l7.376-.64 12.218-18.62c51.733-78.844 111.687-183.268 150.67-262.427l8.276-16.806-8.292-16.694c-31.035-62.477-82.451-153.488-122.293-216.467-20.371-32.201-40.7-62.744-42.052-63.179-1.588-.511-27.243-2.119-65.279-4.091-26.64-1.382-138.699-2.673-162.5-1.872m-247 19.933c-50.93 7.201-142 23.927-142 26.079 0 1.152 15.105 46.343 21.192 63.403 11.914 33.388 35.741 94.293 37.646 96.227.394.4 4.194-5.9 8.445-14 29.82-56.828 73.66-132.341 100.133-172.477 2.249-3.41 4.638-3.482-25.416.768m589.361 11.223c27.676 43.789 68.516 114.516 95.857 166.002l5.44 10.244 8.807-21.186c16.053-38.616 30.65-77.796 43.258-116.104 4.127-12.541 7.251-23.056 6.942-23.365-2.686-2.686-88.731-18.8-137.665-25.781-13.475-1.922-26.18-3.737-28.233-4.032l-3.733-.537 9.327 14.759M400.5 608.014c-122.964 37.926-214.045 85.644-269.978 141.444-36.436 36.349-52.055 70.798-46.111 101.704 5.86 30.468 29.737 64.658 68.526 98.122 57.656 49.741 149.583 96.378 249.944 126.802 9.018 2.734 16.487 4.845 16.599 4.692.112-.153 2.568-7.928 5.459-17.278 16.91-54.696 46.222-131.116 76.276-198.858l11.028-24.858-5.727-12.642c-30.013-66.242-57.633-137.303-78.666-202.387-4.042-12.51-7.575-22.713-7.85-22.673-.275.039-9.05 2.709-19.5 5.932m1067.038 8.236c-16.319 52.755-44.348 125.347-74.676 193.401l-12.991 29.151 3.033 6.007c5.169 10.24 22.837 49.554 33.342 74.191 19.363 45.41 36.218 89.544 51.461 134.75 5.101 15.128 7.96 22.25 8.932 22.25.787 0 14.811-4.449 31.166-9.886 89.572-29.778 163.466-66.699 218.153-108.999 49.848-38.557 79.204-79.912 81.701-115.097 2.951-41.563-37.702-93.653-109.737-140.61-47.266-30.812-108.05-59.243-175.422-82.053-21.779-7.374-47.632-15.355-49.739-15.355-.96 0-2.685 4.044-5.223 12.25M3097.5 640.666c-44.418 2.716-81.342 12.964-118.529 32.897-68.275 36.599-120.6 106.426-139.999 186.829-6.856 28.417-9.187 49.147-9.175 81.608.012 34.33 2.684 56.962 10.212 86.5 8.855 34.741 20.669 62.008 38.827 89.608 45.8 69.616 116.886 112.152 204.755 122.519 16.989 2.004 57.545 2.273 74.909.495 74.37-7.612 135.752-34.627 186.943-82.275l5.871-5.464-21.225-28.942c-11.674-15.917-21.562-29.063-21.973-29.213-.412-.15-4.768 3.402-9.682 7.892-36.031 32.927-82.174 54.837-131.434 62.407-14.405 2.214-45.893 3.034-60.108 1.566-72.203-7.459-128.205-46.383-159.836-111.093-10.979-22.46-18.102-48.654-21.552-79.25l-.648-5.75H3388l-.005-21.25c-.028-117.428-44.502-212.817-123.995-265.944-24.354-16.277-50.734-27.719-81.244-35.239-26.612-6.559-58.643-9.528-85.256-7.901m1297.5.006c-74.001 4.059-136.417 30.877-185.01 79.491-53.877 53.901-83.613 128.211-85.367 213.337-.821 39.856 3.866 74.358 14.975 110.226 32.967 106.446 116.73 179.627 224.09 195.781 26.564 3.996 63.698 4.417 89.312 1.011 58.628-7.795 104.204-29.701 143.536-68.993 10.261-10.251 24.464-26.774 24.464-28.461 0-1.44-57.35-54.411-59.321-54.792-.649-.125-3.566 2.86-6.484 6.633-16.722 21.625-42.339 41.891-66.888 52.914-35.46 15.923-82.779 19.017-124.869 8.165-72.171-18.609-123.615-77.108-140.372-159.623-6.974-34.345-6.789-77.706.483-113.003 10.079-48.926 34.169-91.085 68.451-119.797C4325.446 735.55 4367.679 721 4415.541 721c42.269 0 77.575 11.106 107.459 33.804 9.48 7.199 25.978 23.661 32.5 32.426 2.75 3.696 5.45 6.722 6 6.723 1.298.004 58.911-51.877 59.283-53.384.399-1.62-13.618-18.271-25.094-29.811-36.365-36.566-80.546-58.522-134.259-66.721-19.961-3.047-47.136-4.424-66.43-3.365m-674 1.433c-14.39 1.257-28.859 3.636-45.925 7.553-51.334 11.78-96.405 36.622-138.065 76.096l-10.491 9.94 20.391 30.403c11.214 16.722 20.758 30.816 21.209 31.322.466.523 5.888-4.002 12.6-10.515 35.783-34.725 72.389-54.91 114.795-63.298 46.657-9.229 95.368-4.644 128.986 12.14 36.236 18.091 57.666 47.127 63.432 85.946.658 4.428 1.068 28.394 1.068 62.384v55.193l-11.269-10.885c-6.197-5.986-14.635-13.439-18.75-16.562-34.609-26.266-78.557-42.33-127.981-46.78-16.537-1.489-46.56-1.268-60.278.443-84.891 10.589-146.729 61.728-165.106 136.539-4.857 19.773-6.868 50.871-4.686 72.476 4.438 43.946 21.91 80.806 52.545 110.85 35.885 35.193 85.007 55.447 139.025 57.322 55.845 1.939 109.173-12.129 151.917-40.074 13.965-9.13 23.587-16.894 35.333-28.51l9.25-9.147V1229h90.049l-.305-210.75c-.34-234.856.195-216.858-7.278-244.614-8.071-29.975-21.646-54.033-41.872-74.206-32.996-32.911-78.431-51.534-140.018-57.391-12.584-1.197-54.581-1.157-68.576.066M926.5 669.631c-23.175 2.511-48.904 11.487-70.243 24.504-39.703 24.219-69.161 67.89-77.362 114.687-2.403 13.71-2.886 39.945-.971 52.678 6.732 44.743 30.04 84.214 65.603 111.098 22.735 17.186 48.242 27.963 76.973 32.521 10.433 1.655 39.809 1.669 50 .023 38.448-6.21 71.556-23.48 97.595-50.908 19.696-20.748 33.855-46.209 40.892-73.532 4.241-16.466 5.3-25.316 5.229-43.702-.11-28.46-5.446-50.582-18.321-75.964-23.187-45.709-64.498-77.483-115.285-88.67-9.151-2.015-14.548-2.51-30.61-2.807-10.725-.199-21.3-.166-23.5.072M3085 716.509c-40.763 5.591-74.211 22.249-102.355 50.974-32.189 32.853-53.176 79.885-58.13 130.267l-.614 6.25H3299v-4.039c0-6.783-2.011-22.913-4.168-33.434-5.383-26.254-15.434-50.432-30.416-73.165-29.107-44.165-74.452-71.161-129.916-77.342-12.186-1.359-37.881-1.105-49.5.489m628 213.18c-8.468.891-25.752 4.616-34.137 7.356-21.235 6.939-38.126 17.12-52.929 31.902-17.552 17.528-27.47 35.971-32.293 60.053-4.743 23.681-2.028 50.209 7.398 72.26 16.628 38.903 50.364 64.258 98.461 73.999 14.913 3.02 51.035 3.226 68 .387 48.171-8.059 86.544-27.967 113.486-58.875l8.014-9.194V998.768l-3.414-4.634c-4.334-5.884-19.262-20.372-27.086-26.288-26.471-20.015-62.903-33.686-100.711-37.791-9.025-.981-36.801-1.208-44.789-.366m-2384.534 12.518c-21.725 42.224-69.131 124.846-98.843 172.27-4.127 6.587-7.371 12.109-7.208 12.271.988.988 83.937-11.569 114.585-17.347 23.112-4.356 57.464-11.625 58.245-12.324 1.665-1.49-22.762-69.882-40.922-114.577-6.524-16.058-20.327-48.745-20.815-49.293-.144-.161-2.413 3.889-5.042 9m-770.399-3.465c-2.809 6.141-20.224 49.912-26.562 66.758-13.008 34.58-33.187 94.152-32.219 95.119.719.719 32.431 7.124 55.714 11.253 43.554 7.723 116.403 17.629 115.246 15.671-.339-.574-3.078-4.868-6.087-9.543-30.269-47.02-71.237-117.602-97.594-168.141-7.123-13.657-7.256-13.832-8.498-11.117m856.843 237.681c-.233.233-11.22 2.7-24.417 5.482-68.245 14.388-139.769 24.99-219.993 32.61l-7 .664-4.5 6.628c-15.383 22.657-45.567 63.663-68.795 93.457-26.579 34.094-44.869 55.918-82.43 98.353-1.869 2.112-1.833 2.155 14.425 17.155 89.632 82.689 175.421 137.002 249.013 157.652 24.607 6.905 32.94 8.082 56.787 8.022 20.545-.051 21.898-.176 30.463-2.807 14.766-4.536 21.743-8.774 33.1-20.101 27.071-27.001 43.656-72.607 51.11-140.538 2.226-20.294 2.534-83.963.516-107-3.701-42.257-10.304-85.447-19.302-126.25-4.266-19.346-5.545-23.75-6.895-23.75-.912 0-1.849.191-2.082.423m-942.72 21.827c-10.844 47.099-17.466 86.917-21.746 130.75-2.175 22.271-3.06 80.819-1.527 101 5.108 67.249 22.242 117.501 49.097 144 9.151 9.03 17.452 14.077 29.486 17.93 41.248 13.206 104.099.136 175.174-36.429 58.593-30.143 125.309-78.786 181.594-132.402l7.769-7.4-6.308-6.6c-38.075-39.833-103.856-120.821-146.139-179.924-4.849-6.779-9.329-12.504-9.954-12.722-.625-.218-9.011-1.09-18.636-1.938-70.674-6.224-141.051-16.168-205.78-29.075-15.004-2.992-27.629-5.44-28.054-5.44-.426 0-2.665 8.213-4.976 18.25M838.775 1226c25.968 34.498 65.871 82.324 105.255 126.158l4.531 5.042 11.027-12.35c14.807-16.582 35.949-41.683 52.529-62.364 15.49-19.323 46.08-59.622 45.613-60.09-.171-.17-10.868.156-23.77.726-26.613 1.176-152.088 1.265-179.64.128l-18.18-.75 2.635 3.5" fill="#8c9ca4" fill-rule="evenodd"/></svg>