<svg xmlns="http://www.w3.org/2000/svg" data-name="Layer 1" viewBox="0 0 489.27 500.02"><ellipse fill="#d6d8e5" cx="71.93" cy="322.02" opacity=".15" rx="71.93" ry="41.53" style="isolation:isolate"/><ellipse fill="#edeff9" cx="71.1" cy="317.58" opacity=".5" rx="40.12" ry="23.16" style="isolation:isolate"/><ellipse fill="#edeff9" cx="70.72" cy="309.36" rx="11.44" ry="6.61"/><path d="M60.1 221.73h22v86.46h-22z" fill="#edeff9"/><path d="M59.05 220.75s.6 17.78 13.25 49.67c0 0 11.78-25.68 13-50.21s-26.25.54-26.25.54Z" fill="#f8bf15"/><path d="m43.6 153.81-29.27 28.48-3.48 37.19 35.4-17.75 6.44-45.36-9.09-2.56zm57.4 0 29.26 28.48 3.49 37.19-35.53-18.98-6.31-44.13 9.09-2.56z" fill="#5790cc"/><ellipse fill="#424956" cx="71.93" cy="216.84" rx="14.55" ry="8.4"/><path d="M49.87 208.44v-7.56h44.07v7.84l-44.07-.28z" fill="#494949"/><ellipse fill="#2b303f" cx="71.93" cy="208.43" rx="22.06" ry="12.74"/><ellipse fill="#edeff9" cx="71.86" cy="196.96" rx="26.92" ry="15.54"/><path d="M100.93 169.28V176c0 1.35-.07 2.64-.12 3.9 0 1.57-.11 3.06-.19 4.49s-.15 2.83-.25 4.12c-.41 5.65-.4 9.81-1.1 11.44-3.81 8.91-16.7 4-23.06.8-2.35-1.18-3.9-2.15-3.9-2.15h-.58a46.35 46.35 0 0 1-4.56 2.08c-6.67 2.7-18.56 7.49-21.86-.76-.59-1.48-1.18-6.37-1.54-11.49-.09-1.28-.17-2.65-.25-4.11s-.12-2.91-.18-4.48c0-1.25-.07-2.54-.1-3.88v-6.67C43.06 134.35 46.76 78.56 59 54.75c3.53-6.89 7.77-11.1 12.84-11.35h.58c5 .26 9.29 4.45 12.83 11.31 12.03 23.72 15.9 79.29 15.68 114.57Z" fill="#edeff9"/><circle fill="#2b303f" cx="72" cy="126.21" r="10.17"/><path d="M72 137.87a11.66 11.66 0 1 1 11.66-11.66A11.66 11.66 0 0 1 72 137.87Zm0-20.34a8.68 8.68 0 1 0 8.67 8.69 8.69 8.69 0 0 0-8.67-8.69Z" fill="#424956"/><circle fill="#2b303f" cx="72" cy="96.31" r="10.17"/><path d="M72 108a11.67 11.67 0 1 1 11.66-11.69A11.66 11.66 0 0 1 72 108Zm0-20.34a8.68 8.68 0 1 0 8.67 8.69A8.68 8.68 0 0 0 72 87.64Z" fill="#424956"/><path d="M100.93 189.39v3.68c-1 3.3-3.72 6.46-8.14 9-11.46 6.61-30 6.61-41.51 0-4.42-2.56-7.13-5.73-8.14-9v-3.67c1 3.36 3.7 6.56 8.18 9.15 11.47 6.61 30.05 6.61 41.51 0 4.39-2.62 7.17-5.81 8.1-9.16Z" fill="#5790cc"/><path d="M100.84 195.21c0 1.34-.07 2.64-.12 3.89-1.12 3.12-3.78 6.09-8 8.51-11.46 6.62-30 6.62-41.51 0-4.21-2.44-6.87-5.43-8-8.57 0-1.25-.07-2.54-.1-3.87 1 3.26 3.73 6.36 8.09 8.88 11.47 6.62 30.05 6.62 41.51 0 4.38-2.51 7.08-5.6 8.13-8.84Z" fill="#5790cc"/><path d="M100.53 184.88c-1.21 2.93-3.81 5.72-7.78 8-11.46 6.61-30 6.61-41.51 0-4-2.32-6.6-5.12-7.81-8.08.08 1.46.16 2.83.25 4.11 1.29 2.76 3.81 5.36 7.56 7.53a39.75 39.75 0 0 0 15.84 4.72 51 51 0 0 0 9 .07 40.1 40.1 0 0 0 16.63-4.79c3.72-2.15 6.23-4.72 7.53-7.45ZM85.05 54.73a44.65 44.65 0 0 1-26.25 0c3.53-6.89 7.77-11.1 12.84-11.35h.58c5.05.3 9.29 4.49 12.83 11.35Z" fill="#5790cc"/><path d="M69.8 153.89h4.99v65.51H69.8z" fill="#5790cc"/><path d="m311.4 382.18-58-33.49c-4.19-2.42-3.66-6.64 1.17-9.43l37.58-21.69 73.15 42.23-37.58 21.7c-4.84 2.79-12.14 3.09-16.32.68Z" fill="#d6d8e5" opacity=".4" style="isolation:isolate"/><path d="m315.63 379.69-58-33.5c-4.18-2.41-3.66-6.63 1.17-9.42l37.59-21.69 73.15 42.23L332 379c-4.88 2.8-12.19 3.1-16.37.69Z" fill="#b1b4c4"/><path d="M369.53 357.31v-2.21l-3.38 1.95 3.38.26zM254.8 342.2v-2.25l3.47 1.44-3.47.81z" fill="#b1b4c4"/><path d="m315.63 377.47-58-33.49c-4.18-2.42-3.66-6.63 1.17-9.42l37.59-21.7 73.15 42.24L332 376.79c-4.88 2.79-12.19 3.1-16.37.68Z" fill="#d6d8e5"/><path d="m296.57 312.96-9.05-30.04 73.95 42.42 8.06 29.76-72.96-42.14z" fill="#9ea1af"/><path d="m367.39 356.33 2.14-1.23-3.19-2.55Z" fill="#9ea1af"/><path d="m294.24 314.09-9.05-30.04 73.95 42.42 8.24 29.86-73.14-42.24z" fill="#b1b4c4"/><path d="M482 407 195.71 241.69c-4-2.32-7.27-8.54-7.27-13.89V6.37c0-5.36 3.26-7.82 7.27-5.5L482 166.14c4 2.32 7.27 8.54 7.27 13.89v221.43c-.03 5.35-3.27 7.81-7.27 5.54Z" fill="#c4c7d6"/><path d="m483.44 409.24 3.17-1.83-1.37-9.4-1.8 11.23z" fill="#c4c7d6"/><path d="m187.93 2.24 3.12-1.81L195.54 3s-4.78.73-4.9.7-2.71-1.46-2.71-1.46Z" fill="#b1b4c4"/><path d="M479.34 408.47 193.09 243.2c-4-2.32-7.27-8.53-7.27-13.89V7.88c0-5.35 3.25-7.81 7.27-5.49l286.25 165.27c4 2.32 7.27 8.54 7.27 13.89V403c0 5.33-3.25 7.79-7.27 5.47Z" fill="#e4e7f2"/><path d="M478.84 408.76 192.58 243.49c-4-2.32-7.27-8.54-7.27-13.89V8.17c0-5.35 3.26-7.81 7.27-5.49L478.84 168c4 2.31 7.27 8.53 7.27 13.89v221.37c0 5.36-3.26 7.82-7.27 5.5Z" fill="#d6d8e5"/><path d="M482.17 395.29 189 226l.1-216.94c0-2.22 1.56-3.12 3.48-2l286.26 165.26a7.67 7.67 0 0 1 3.48 6Z" fill="#fff"/><path d="M304.72 102.08 210.8 47.86a3.41 3.41 0 0 1-1.42-2.73v-6.55c0-1 .63-1.53 1.42-1.08l93.92 54.22a3.45 3.45 0 0 1 1.42 2.73V101c0 1.05-.64 1.54-1.42 1.08Zm-24.12 1.57L211.23 63.6a3.43 3.43 0 0 1-1.43-2.72v-3.26c0-1 .64-1.54 1.43-1.08l69.37 40.05a3.4 3.4 0 0 1 1.4 2.72v3.26c0 1.05-.62 1.54-1.4 1.08Zm0 12.35-69.37-40a3.43 3.43 0 0 1-1.43-2.72V70c0-1 .64-1.54 1.43-1.08L280.6 109a3.42 3.42 0 0 1 1.42 2.72V115c-.02 1-.64 1.47-1.42 1Z" fill="#e9eaf2"/><path d="m267.51 120.82-56.28-32.5a3.43 3.43 0 0 1-1.43-2.72v-3.26c0-1 .64-1.54 1.43-1.08l56.28 32.49a3.44 3.44 0 0 1 1.43 2.73v3.26c0 1.05-.64 1.53-1.43 1.08Z" fill="#5790cc"/><path d="m304.72 231.84-93.92-54.22a3.41 3.41 0 0 1-1.42-2.73v-6.55c0-1.05.63-1.53 1.42-1.08l93.92 54.22a3.45 3.45 0 0 1 1.42 2.73v6.55c0 1.05-.64 1.53-1.42 1.08Zm-24.12 1.57-69.37-40a3.44 3.44 0 0 1-1.43-2.73v-3.26c0-1 .64-1.53 1.43-1.07l69.37 40a3.45 3.45 0 0 1 1.42 2.73v3.26c-.02 1.04-.64 1.52-1.42 1.07Zm0 12.36-69.37-40.05a3.43 3.43 0 0 1-1.43-2.72v-3.26c0-1 .64-1.53 1.43-1.07l69.37 40a3.45 3.45 0 0 1 1.4 2.73v3.26c0 1.08-.62 1.56-1.4 1.11Z" fill="#e9eaf2"/><path d="m267.51 250.57-56.28-32.49a3.43 3.43 0 0 1-1.43-2.73v-3.26c0-1.05.64-1.53 1.43-1.07l56.28 32.49a3.44 3.44 0 0 1 1.43 2.73v3.26c0 1.05-.64 1.5-1.43 1.07Z" fill="#5790cc"/><path d="M329.85 247.94s10.36 8.7 25.32-3.18c10.68-8.76 20.23-3.76 25.55-.76s13 4.84 27.63 31.26c0 0 4.76 8.28 12.62 12.82s11.64 2.32 17.82-7 10.23-19.64 21.59-12.9v93.69L328.83 286v-38.67Z" fill="#f5f6ff"/><path d="m301.26 208.22-90-52a3.44 3.44 0 0 1-1.43-2.73v-51.93c0-1 .64-1.53 1.43-1.08l90 52a3.44 3.44 0 0 1 1.43 2.73v51.95c0 1.03-.64 1.51-1.43 1.06Z" fill="#e9eaf2"/><path d="M328.83 245.76v40.22l131.55 75.94v-93.69m-79.85-23.76v71.26m40.25-26.19v49.42" fill="none" stroke="#e9eaf2" stroke-miterlimit="10" stroke-width=".31"/><path d="M328.83 247.33c23.34 14.47 26.64-18.24 52.07-3.56s21.92 33.81 40.69 44.65 19.21-31.5 38.79-20.19" fill="none" stroke="#e9eaf2" stroke-miterlimit="10" stroke-width="1.53"/><ellipse fill="#5790cc" cx="380.52" cy="244.48" rx="2.53" ry="4.39" transform="rotate(-30 380.531 244.483)"/><ellipse fill="#5790cc" cx="462.22" cy="269.31" rx="2.54" ry="4.41" transform="rotate(-29.89 462.159 269.285)"/><ellipse fill="#5790cc" cx="422.45" cy="289.82" rx="2.54" ry="4.41" transform="rotate(-29.89 422.41 289.799)"/><ellipse fill="#5790cc" cx="328.83" cy="247.34" rx="2.53" ry="4.39" transform="rotate(-30 328.847 247.334)"/><path d="m332.54 178.23-5.39-3.11a3.44 3.44 0 0 1-1.43-2.73v-26c0-1 .64-1.53 1.43-1.08l5.39 3.12a3.4 3.4 0 0 1 1.46 2.67v26.05c0 1.05-.67 1.53-1.46 1.08Z" fill="#e9eaf2"/><path d="m345 185.4-5.39-3.12a3.43 3.43 0 0 1-1.43-2.72v-53c0-1 .64-1.54 1.43-1.08l5.39 3.12a3.44 3.44 0 0 1 1.43 2.73v53c-.04 1.04-.68 1.52-1.43 1.07Z" fill="#5790cc"/><path d="m369.79 199.73-5.39-3.11a3.37 3.37 0 0 1-1.43-2.73v-47.84c0-1.05.64-1.53 1.43-1.08l5.39 3.11a3.44 3.44 0 0 1 1.43 2.73v47.85c0 1.05-.64 1.53-1.43 1.07Z" fill="#e9eaf2"/><path d="m382.21 206.9-5.39-3.11a3.44 3.44 0 0 1-1.43-2.73v-39.64c0-1 .64-1.53 1.43-1.08l5.39 3.12a3.43 3.43 0 0 1 1.43 2.72v39.64c0 1.06-.64 1.54-1.43 1.08Z" fill="#5790cc"/><path d="m406.94 221.18-5.4-3.11a3.41 3.41 0 0 1-1.42-2.73v-19.59c0-1.06.63-1.54 1.42-1.08l5.4 3.11a3.45 3.45 0 0 1 1.42 2.73v19.59c0 1.05-.64 1.53-1.42 1.08Z" fill="#e9eaf2"/><path d="m419.35 228.35-5.35-3.12a3.43 3.43 0 0 1-1.43-2.72v-66.63c0-1.06.64-1.54 1.43-1.08l5.39 3.11a3.43 3.43 0 0 1 1.43 2.73v66.63c-.04 1.05-.68 1.53-1.47 1.08Z" fill="#5790cc"/><path d="m449.64 245.84-5.39-3.12a3.43 3.43 0 0 1-1.43-2.72v-19.6c0-1.05.64-1.53 1.43-1.08l5.39 3.12a3.37 3.37 0 0 1 1.43 2.73v19.59c0 1.05-.64 1.53-1.43 1.08Z" fill="#e9eaf2"/><path d="m462.06 253-5.39-3.12a3.37 3.37 0 0 1-1.43-2.73v-26c0-1.05.64-1.53 1.43-1.08l5.39 3.11a3.44 3.44 0 0 1 1.43 2.73V252c0 1-.64 1.46-1.43 1Z" fill="#5790cc"/><path d="m104.91 498-44.64-25.74c-5.06-2.93-4.43-8 1.42-11.4l22.66-13.09C90.19 444.4 99 444 104.09 447l44.64 25.78c5.06 2.92 4.43 8-1.42 11.39l-22.66 13.09c-5.84 3.32-14.65 3.74-19.74.74Z" fill="#d6d8e5" opacity=".4" style="isolation:isolate"/><path d="M172 465.87v-62.31l-95.32-10.73v62.7c-.06 1.92 1 3.75 3.4 5.11l44.64 25.78c5.06 2.92 13.9 2.55 19.74-.82l22.66-13.09c3.29-1.9 4.93-4.35 4.83-6.64Z" fill="#d6d8e5"/><path d="M171.94 410.36v-6.8h-7.33l-40.71-23.51c-5.06-2.93-13.9-2.56-19.74.81L81.5 394q-.6.35-1.17.75l-3.65-1.87v7.43c-.06 1.9 1 3.73 3.4 5.09l44.64 25.77c5.06 2.92 13.9 2.55 19.74-.82l22.66-13.08c3.39-2 5-4.5 4.81-6.86Z" fill="#edf0f9"/><path d="m124.72 423.71-44.64-25.77c-5.06-2.92-4.43-8 1.42-11.4l22.66-13.08c5.84-3.38 14.68-3.74 19.74-.82l44.64 25.77c5.06 2.92 4.43 8-1.42 11.4l-22.66 13.08c-5.84 3.38-14.68 3.74-19.74.82Z" fill="#e2e5f2"/><path d="M114.66 388.53v-2.48h-1.52l-.47-.3a10.66 10.66 0 0 0-9.65 0 5.88 5.88 0 0 0-.81.57l-1.19-.27v2.48a3.4 3.4 0 0 0 2 2.79 10.66 10.66 0 0 0 9.65 0 3.39 3.39 0 0 0 1.99-2.79Z" fill="#f4ab0b"/><ellipse fill="#f8bf15" cx="107.84" cy="386.05" rx="6.82" ry="3.94"/><path d="M131.58 399a4 4 0 0 1-1.83 1.93 10.7 10.7 0 0 1-9.64 0 4 4 0 0 1-1.83-1.93c-.5-1.28.12-2.65 1.83-3.65a10.7 10.7 0 0 1 9.64 0c1.72.95 2.33 2.32 1.83 3.65Z" fill="#e81a5f"/><path d="M131.58 399a4 4 0 0 1-1.83 1.93 10.7 10.7 0 0 1-9.64 0 1.94 1.94 0 0 1 0-3.87 10.7 10.7 0 0 1 9.64 0 4 4 0 0 1 1.83 1.94Z" fill="#ee4364"/><path d="M147.61 407.87v-2.48h-1.52l-.47-.3a10.66 10.66 0 0 0-9.65 0 7.31 7.31 0 0 0-.81.56l-1.19-.26v2.48a3.4 3.4 0 0 0 2 2.79 10.66 10.66 0 0 0 9.65 0 3.39 3.39 0 0 0 1.99-2.79Z" fill="#38b72a"/><ellipse fill="#56b84e" cx="140.79" cy="405.39" rx="6.82" ry="3.94"/><g data-name="Men 2"><path d="M65.3 378.51c-.27 2.33-3 12.39-2.46 15.84s10.1 9.21 10.1 9.21l1.32-5.9L69 392.5l1.42-9.77Z" fill="#ffcea9" data-name="Контур"/><path d="M72.65 368.6a4.15 4.15 0 0 0-5.29 1.59c-1.4 2.32-2.85 10.26-3 11.62 0 0 2 2.71 4.91 2.26Z" fill="#ededed" data-name="Контур 2"/><path d="M83.5 480.76a8.14 8.14 0 0 0 6.15-.75c1.48.05 9.53-3.4 10.62-.51 1 2.54-2.53 4.88-4.39 5.33-4.06 1-7.06 3-8.7 3.36-1.21.25-2.79.42-3.75-.54-1.17-1.14-1.07-5.38.07-6.89Z" fill="#1c327d"/><path d="M87.18 487.48c1.64-.34 4.64-2.37 8.7-3.35 1.56-.38 4.25-2.08 4.52-4.12.36 2.33-2.78 4.4-4.52 4.82-4.06 1-7.06 3-8.7 3.36-1.21.25-2.79.42-3.75-.54a2.27 2.27 0 0 1-.54-1 4.86 4.86 0 0 0 4.29.83Z" fill="#38477b"/><path d="M70.46 474.9a8.14 8.14 0 0 0 6.15-.74c1.48 0 9.52-3.4 10.62-.51 1 2.53-2.53 4.87-4.39 5.33-4.06 1-7.07 3-8.7 3.35-1.22.25-2.79.42-3.76-.53-1.16-1.15-1.06-5.39.08-6.9Z" fill="#1c327d"/><path d="M74.14 481.63c1.63-.35 4.64-2.37 8.7-3.36 1.56-.37 4.25-2.08 4.52-4.11.36 2.33-2.78 4.39-4.52 4.82-4.06 1-7.07 3-8.7 3.35-1.22.25-2.79.42-3.76-.53a2.42 2.42 0 0 1-.53-1 4.89 4.89 0 0 0 4.29.83Z" fill="#38477b"/><path d="M70.3 453.05a49.82 49.82 0 0 1 1.85-8.81s-.55-7.6-.83-14.81c-.31-8.18-3.15-15.38-.91-21.9l25.23 5.61s-1.52 32.61-1.86 36.55a72.51 72.51 0 0 1-1.13 9.16c-1.15 6.33-3 21.39-3 21.39-2.66 1.55-6.17.69-6.17.69s.2-19 .37-23.6c.21-5.57.38-5.15.38-5.15l-.84-13.87-.54-6.9s-.7 5.06-1.16 9.59c-.39 3.94-1.34 7.51-2.41 14.85-.92 6.37-2.42 19.17-2.42 19.17-2.67 1.55-6.29.26-6.29.26s-.99-16.71-.27-22.23Z" fill="#5790cc" data-name="Контур 3"/><path d="M74 368.73c1.93.1 3.36.59 3.6 0a27.42 27.42 0 0 0 .43-3c-.22-.56-.41-1.16-.41-1.16-2.41-1.48-3.17-4.09-3.49-7.13-.54-5.19 2.26-9.73 7.45-10.27 4.88-.51 8.48 2.92 9.43 7.63.52 2.32 1.55 6.72.16 10.54-.78 2.14-1.78 3.84-2.78 4.17a25.43 25.43 0 0 1-2.89-.26s-.26 1.44-.44 2.36-.06 1.39 1.73 2.55-2.79 3.5-5.79 3.27-6.42-2.05-7.36-4c-1.07-2.19-.98-4.76.36-4.7Z" fill="#ffcea9" data-name="Контур 4"/><path d="M76.76 369c-.53 1.33.82 3 4.43 4.08s3.94-.32 3.94-.32a71.19 71.19 0 0 1 7 3.61c2.17 1.52 3.13 5.9 3.42 13.3.34 8.56.37 21.26.08 23.45 0 0-4 4-9.23 3.61s-13.89-5-16-8.55c.06-7.51.94-8.73-.28-13.05-2.78-9.9-4.24-14-2.89-20.53 1.11-5.43 2.67-6.1 4.82-6.05a41.24 41.24 0 0 1 4.71.45Z" fill="#f4f4f4" data-name="Контур 5"/><path d="M103.71 396.77c-4.26 1.07-5.25-1.61-5.81-3.83-1.36-5.38-2.08-10.23-3.09-13.28-1.19-3.6-2.44-4.17-4.18-4.87-2-.83-3.82.91-3.14 5.49a91.63 91.63 0 0 0 3.9 15.63c.53 1.67 1.71 4.64 3.49 6.08 2.19 1.77 5.5 1.7 10.5.46 2.13-.54 4.47-1.81 8.5-3.69 1.08-.5 1.92-.84 4-1.81a14 14 0 0 0 5.33-4.16c1.09-1.58 1.23-2.32 1-2.68s-.77-.35-1.35.32a11.62 11.62 0 0 1-3.06 2.83s1.34-1.39 2.07-2.29a11.82 11.82 0 0 0 1.61-2.63c.38-.92-.41-2.17-1-1.51s-.89 1.32-2 2.64a11.49 11.49 0 0 1-2 1.88 20.89 20.89 0 0 0 1.81-2.92 4.88 4.88 0 0 0 .67-2.64c0-.48-.71-1.05-1.35-.14a17.47 17.47 0 0 1-2.28 3.49c-1 1-1.8 1.58-1.82 1.3s.58-.83.93-2 0-2.42-.65-2.55-.52-.1-1 1a31.5 31.5 0 0 0-1.93 3.51 7.23 7.23 0 0 1-1.75 3c-1.05 1.12-3.36 2.35-7.4 3.37Z" fill="#ffcea9" data-name="Контур 6"/><path d="M89.05 374.05c2.84-.42 4.85.86 6.1 5.16s2.13 7.79 2.13 7.79a7.72 7.72 0 0 1-4.75 3.16c-3.4.83-4.62-.8-4.62-.8s-.94-4.5-1.53-7.57-.84-7.22 2.67-7.74Z" fill="#ededed" data-name="Контур 7"/><path d="M90.83 354.13s4.48-6.82-5.24-8.21c-7-1-11.51 3.5-12 8.39-.5 4.69 2.41 9.52 4.41 11.44a8.45 8.45 0 0 0 6.1-.75 32.52 32.52 0 0 0 .14-3.82s-3.45-7.18 6.59-7.05Z" fill="#2b303f"/></g><ellipse fill="#d6d8e5" cx="382.58" cy="470.58" opacity=".4" rx="24.63" ry="14.22" style="isolation:isolate"/><g data-name="Girl 14"><path d="M382.37 333.37c1-1.63 8.8-2.71 11.36 3.88 1 2.5.82 8.89 1.63 12.9s2.72 6.29 3.41 9.54-.43 8.71-8.28 9.68-13.88-1.79-15.73-4.29-1.89-7.82 0-10.68 3.39-5.17 3.34-8.89Z" fill="#2b303f" data-name="Контур 8"/><path d="M387.51 332.24s-5.86-1.69-9.41 1.47a8.72 8.72 0 0 0-2.5 8.68c.47 1.85 1.42 4.37 2.89 4.51s9.02-14.66 9.02-14.66Z" fill="#2b303f" data-name="Контур 9"/><path d="M389.75 348.21s-.39 6.52-.27 7 2.56 1 3.25 1.52-3.55 7.19-5.7 8.17-8.82-1.53-9.29-4.84c-.42-3.06 1.91-5.43 2.81-6.26a14.14 14.14 0 0 1 1.84-.05l.2-3.16c2.92-.93 7.16-2.38 7.16-2.38Z" fill="#ffcea9" data-name="Контур 10"/><path d="M374 360.54c0-.19-1 .34-1 .35s-.47 16.75-1.29 18.27c-2.09 3.55-7.62 9.57-7.76 10.24-.41 2 .77.21 2.67 0 1.07-.13 7.36-6.49 8.77-7.94l.09.05v-.16l.18-.19a7.72 7.72 0 0 0 0-1.36c2.65-18.19-.57-19.4-1.66-19.26Z" fill="#ffcea9"/><path d="M390.64 355.85c1.84.28 3.93 1.26 4.22 2.26a21.66 21.66 0 0 1-.52 10.9c-1.59 4.2-2.66 6.87-3.58 8.68 0 0-7.93 3.4-14.33-.57 0 0-.44-4.5-.47-6.91-5.9-5.15-.85-11.5 4.15-16.43a10.82 10.82 0 0 1 1.8 0s-4.46 5.28-1.36 8.28c6.65-2.06 7.97-5.06 10.09-6.21Z" fill="#f4f4f4" data-name="Контур 11"/><path d="M377.56 340.12c.65-4.19 3.68-7.36 8-7.11a8.31 8.31 0 0 1 4.18 15.2 8 8 0 0 1-.67 1.83c-1.53 1.78-5.6 2.91-6.94 2.93-1.16 0-2.16-1.07-3.25-2.87-2.26-3.75-1.68-7.91-1.32-9.98Z" fill="#ffcea9" data-name="Контур 12"/><path d="M386.91 333.09c3 .59 5.52 1.45 6.35 4.42.56 2.06 1.3 6 .6 7.61l-.44 1.19-3.67 1.9s-1.72-1.43-1.18-5.62a3 3 0 0 0-.52-1.58 4.83 4.83 0 0 1-.51-1.27 4.81 4.81 0 0 0-2.38-2.58c-2.73-1.53-6.73-.21-7.29.35a8 8 0 0 1 9.04-4.42Z" fill="#2b303f"/><path d="M392.43 465.69c-1.54 1.25-3.93.39-4 .5a63.27 63.27 0 0 1-5.62 4.3c-1 .75-2.45 1.76-2.18 3.2.48 2.59 4.62 1.8 6.18 1s2.84-2.1 4.32-3c1.05-.65 2.09-1 2.26-2.32.05-.83-.69-3.71-.96-3.68Z" fill="#1c327d"/><path d="M393.33 468.81c-.21 1.28-1.23 1.63-2.28 2.28-1.5.93-2.82 2.28-4.38 3.07s-5.05 1.45-6.06-.39c.55 2.49 4.62 1.71 6.16.92s2.84-2.1 4.32-3c1.05-.65 2.09-1 2.26-2.32a3.5 3.5 0 0 0-.02-.56Z" fill="#38477b"/><path d="M381.66 463.54c-1.41 1.15-3.53.5-3.63.61a61.13 61.13 0 0 1-5.14 3.92c-.88.69-2.25 1.61-2 2.93.44 2.37 4.23 1.64 5.67.92s2.59-1.93 3.95-2.77c1-.6 1.91-.91 2.06-2.13.1-.74-.66-3.51-.91-3.48Z" fill="#1c327d"/><path d="M382.56 466.53c-.19 1.17-1.13 1.49-2.09 2.08-1.37.86-2.58 2.09-4 2.82s-4.62 1.33-5.55-.36c.5 2.28 4.23 1.57 5.65.85s2.59-1.93 3.95-2.77c1-.6 1.91-.91 2.06-2.13a2 2 0 0 0-.02-.49Z" fill="#38477b"/><path d="M373.38 392.14c.68-5.3 2.63-13 2.63-13a15.7 15.7 0 0 0 5.87 1.45 48.15 48.15 0 0 0 8.88-.86 52.55 52.55 0 0 0 3.13 4.84c1.53 2.12 4.5 6.76 3.78 14.87-.47 5.3-3.44 27.81-3.44 27.81a41.94 41.94 0 0 1 1.83 11.67 97.06 97.06 0 0 1-1.86 14l-1.77 12.77s-2.36 1.71-4 .5l.21-12.5c-.2-3.06-.51-7.57-.7-10.45-.32-4.7-1.16-12.15-1.4-14s-.84-5.12-1.13-8.76-1.65-22.17-1.65-22.17l-.19 3.47s-.19 5.63-1 12.58-1.09 10-1.09 10a15 15 0 0 1 1.59 4.49c.14 1.5 1.85 13.38.83 19.42l-2.11 15.37a4 4 0 0 1-3.63.48l-1.24-15.49c-.83-5.89-2.59-18.38-2.86-20a67.17 67.17 0 0 1-1.06-9.91c-.44-6.72-.3-21.29.38-26.58Z" fill="#ffcea9"/><path d="m390.76 377.69 4.56 9.15s7 10.18-.25 36.35l1.35 8.08s-13.64 8.75-22.77 0c0 0-3.16-24.19-1.48-35.34a128.85 128.85 0 0 1 4.25-18.93s2.24 2.47 13.74.84" fill="#ee4364"/><path d="M380.11 353.78s-3.62-1.11-7.47 6.92l1.44.86s3.79-5.72 6.03-7.78Z" fill="#ededed"/><path d="m351.84 397.29 15.58-9.05 11.18 6.45-15.58 9.06-11.18-6.46z" fill="#f4f4f4"/><path d="M365.41 388.9a6.8 6.8 0 0 0-2.77.9 7.11 7.11 0 0 1-1 .73c-.15.07-.3.17-.46.24a1.76 1.76 0 0 0-.63.41 1.59 1.59 0 0 0-.27.87 3.57 3.57 0 0 0-.06 1.13c.14.56.72.51 1 .12a1.2 1.2 0 0 0 .25-.68 1.5 1.5 0 0 1 .66-1.19l3.72-2.31a.44.44 0 0 0-.44-.22Zm29.64-27.9c-.51-2.12-2.17-1.44-3.6-2.68-3.31 4.69-1.11 17.37-.66 18.72l-12.72 8.11-.86.53a15.23 15.23 0 0 1-4.73 2.06c-1.27.15-1.93 1.94-3.29 2.1a.53.53 0 0 0-.51.55.5.5 0 0 0 .16.36c.54.52 2 .09 3-1.07v.08a1.08 1.08 0 0 0 .56.9.62.62 0 0 0 .24.08.4.4 0 0 0 .07.24 1 1 0 0 0 .76.55 1 1 0 0 0 1 .67 1.13 1.13 0 0 0 .77-.35 6.67 6.67 0 0 0 2.78-2 24.9 24.9 0 0 1 2.06-1.92c3.45-1.49 13.8-5.91 14.26-6.54.72-.95 1.45-17.39.71-20.39Z" fill="#ffcea9"/><path d="M396.21 366.69s-4.07 1.82-7.45.12l.49-6.37s.05-3.42 3.1-3.76 4.65 3.57 3.86 10.01Z" fill="#ededed"/></g></svg>