<svg xmlns="http://www.w3.org/2000/svg" width="5000" height="1821"><path d="M1440 37.397c-76.725 20.515-239.517 64.016-361.76 96.668l-222.259 59.367-53.701 94.414-53.701 94.413-109.04-.733-109.039-.733-215 214.253A5361314.768 5361314.768 0 0 0 50.25 859.39C22.613 886.94 0 909.978 0 910.587c0 .609 119.363 120.039 265.25 265.4l265.25 264.292 109.002-.737 109.002-.736 53.811 94.504c46.794 82.18 54.162 94.592 56.498 95.172 1.478.366 164.33 43.833 361.894 96.592S1580.608 1821 1581.457 1821c.849 0 1.543-.266 1.543-.592 0-.326 43.661-163.011 97.024-361.522 82.598-307.268 96.849-361.254 95.853-363.117-.644-1.203-25.405-43.307-55.024-93.565-29.619-50.257-53.853-91.495-53.853-91.639 0-.143 24.778-42.291 55.062-93.661l55.061-93.399-45.689-170.003c-25.129-93.501-47.637-177.202-50.017-186.002-7.908-29.237-97.256-361.952-97.951-364.75-.407-1.64-1.346-2.731-2.324-2.702-.903.026-64.417 16.833-141.142 37.349m-271 273.196c-82.225 21.134-167.95 43.142-190.5 48.906-166.354 42.526-208.979 53.507-210.625 54.259-.894.408-82.284 82.867-180.868 183.242-98.584 100.375-188.523 191.837-199.866 203.25L366.518 821l317.991-.039 317.991-.039 156-269.572c85.8-148.265 157.275-271.772 158.833-274.461 1.557-2.689 2.457-4.851 2-4.805-.458.046-68.108 17.375-150.333 38.509M3602 374.5V453h176V296h-176v78.5m358 49V551h-122v135h122v597h175V686h62.617c60.431 0 62.599-.065 62.132-1.85-.266-1.017-11.858-31.392-25.76-67.5L4208.713 551H4135V296h-175v127.5M1319 634.23c-86.625 149.597-158.037 272.994-158.694 274.216-1.08 2.006 1.677 7.182 28.566 53.637 57.352 99.087 283.409 489.455 285.602 493.193l2.214 3.776 4.58-16.276c2.519-8.952 37.068-132.365 76.776-274.252l72.196-257.976-72.764-260.024c-80.796-288.726-80.584-287.97-80.813-288.156-.09-.073-71.038 122.265-157.663 271.862m1897.665-104.724c-82.855 7.951-143.992 42.779-184.712 105.224l-6.671 10.231.502-46.981.503-46.98H2861v732h175.952l.301-217.25c.3-217.236.3-217.251 2.46-230.25 5.942-35.762 14.388-58.695 30.205-82.012 6.806-10.033 23.268-26.444 33.044-32.941 29.118-19.351 67.032-28.818 109.038-27.229 33.76 1.278 60.473 8.957 84.173 24.197 9.411 6.052 25.936 22.722 32.696 32.985 12.272 18.63 21.273 42.024 26.044 67.688 2.921 15.714 2.977 16.138 4.579 34.312 1.271 14.422 1.499 48.35 1.503 223.75L3361 1283h175l-.005-234.25c-.005-247.655-.008-247.791-4.574-279.25-15.983-110.117-69.056-185.146-155.421-219.719-24.125-9.658-55.432-16.928-85-19.74-19.448-1.85-57.763-2.125-74.335-.535M2115 782.76c0 248.815.014 249.604 5.113 283.24 16.242 107.136 66.999 180.519 148.921 215.304 34.188 14.517 66.918 21.39 113.632 23.862 64.284 3.402 118.739-7.668 163.297-33.195 29.938-17.152 58-44.57 76.122-74.378l5.415-8.906.26 47.156.26 47.157H2793V551h-175.952l-.316 217.75c-.345 237.346-.012 223.14-5.825 248.75-11.795 51.962-38.101 88.193-77.407 106.613-40.485 18.972-98.798 22.514-144 8.747-54.886-16.717-87.967-63.974-96.504-137.858-2.487-21.526-2.945-59.638-2.97-247.252L2290 551h-175v231.76M3602 917v366h176V551h-176v366m670-365.581c0 .329 164.655 420.614 190.039 485.081 3.249 8.25 23.833 60.736 45.743 116.636l39.837 101.635-59.312 140.365c-32.621 77.2-59.565 141.151-59.876 142.114-.536 1.658 4.353 1.75 93.257 1.75h93.822l191.778-491.75c105.478-270.462 192.041-492.765 192.363-494.005l.585-2.255-93.768.255-93.767.255-87.344 241.5c-48.039 132.825-87.46 241.79-87.601 242.144-.141.354-40.278-108.434-89.195-241.75L4459.622 551h-93.811c-51.596 0-93.811.189-93.811.419M386.571 1020.248c20.857 21.11 46.828 47.528 254.867 259.252 69.175 70.4 126.512 128.165 127.417 128.366.905.201 31.12 7.925 67.145 17.163 36.025 9.238 88.45 22.676 116.5 29.861l208.973 53.531c86.885 22.257 158.074 40.365 158.198 40.241.124-.123-71.194-123.511-158.485-274.193l-158.71-273.969-317.957-.252-317.958-.251 20.01 20.251" fill="#8c9ca4" fill-rule="evenodd"/></svg>